<svg width="110" height="103" viewBox="0 0 110 103" fill="none" xmlns="http://www.w3.org/2000/svg">
<path d="M28.641 29.2797C27.4801 29.5413 26.9873 31.0284 27.7465 31.8845C27.9679 32.1343 27.9864 32.4123 27.7665 32.6639C27.5467 32.9153 27.2618 32.9421 26.992 32.7472C26.7373 32.564 26.614 32.3308 26.7872 32.0026C26.8572 31.8713 26.8923 31.6931 26.8705 31.5447C26.6589 30.0525 27.1803 29.1498 28.6059 28.6335V27.2032C27.4417 26.9614 25.9228 28.3089 26.0693 29.4962C26.0811 29.5864 26.1559 29.6761 26.221 29.7476C26.4375 29.9792 26.4275 30.2075 26.2192 30.4289C25.9945 30.6671 25.5197 30.7071 25.3065 30.5022C25.07 30.2757 25.1018 30.0492 25.285 29.7793C25.4037 29.5763 25.478 29.3504 25.5031 29.1165C25.6073 28.4381 25.9437 27.8169 26.4549 27.3589C26.9661 26.9009 27.6204 26.6344 28.3061 26.605C28.6441 26.5932 28.7442 26.5002 28.8191 26.1622C29.2954 23.992 30.0915 21.9917 31.9619 20.6045C31.9952 20.581 32.0134 20.5379 32.0849 20.4446H31.6053C29.8499 20.4446 28.0912 20.3962 26.3376 20.4646C25.3516 20.5028 24.3341 20.6096 23.3981 20.9025C20.262 21.8802 17.8937 23.867 16.2099 26.6816C16.0584 26.9348 16.0335 27.1013 16.2784 27.3329C17.2777 28.2805 17.6288 29.5229 17.8038 30.837C17.8686 31.33 17.9619 31.8212 18.0019 32.3175C18.0752 33.2353 17.7205 34.028 17.2409 34.7857C16.0868 36.6059 14.3812 37.7686 12.4992 38.6848C11.7649 39.0426 10.937 39.2291 10.1343 39.4123C9.57313 39.5406 9.41482 39.3624 9.53983 38.8061C9.93777 37.034 9.77632 35.2604 9.65798 33.4766C9.58156 32.3193 9.46009 31.1317 9.62311 29.9959C9.9511 27.7142 11.2368 26.5866 13.532 26.347C14.1565 26.2819 14.7942 26.347 15.4238 26.3119C15.5101 26.2976 15.5928 26.2664 15.6671 26.2201C15.7414 26.1738 15.8059 26.1133 15.8568 26.0421C16.9111 24.405 18.2035 22.991 19.8423 21.9353C20.5751 21.4621 21.3863 21.1108 22.1641 20.706C22.2938 20.6378 22.432 20.5845 22.5586 20.4462H22.0922C16.7628 20.4475 11.434 20.4458 6.10586 20.4413C5.8341 20.4413 5.38619 20.5927 5.38286 20.1431C5.37953 19.6585 5.84743 19.82 6.13056 19.8184C7.73605 19.8033 9.33997 19.8117 10.9455 19.81C11.0887 19.81 11.2319 19.7982 11.5217 19.7851C8.51549 18.1812 6.51028 15.9212 5.76082 12.8235C4.93652 12.7902 4.17042 12.8635 3.45585 12.7069C2.20186 12.4338 1.2692 11.6508 0.644562 10.5183C0.581801 10.4065 0.488117 10.3152 0.374756 10.2554C-0.00143935 10.0504 -0.0849056 9.81394 0.114948 9.44265C0.203831 9.27306 0.355559 9.145 0.537661 9.08586C0.719763 9.02672 0.917779 9.04121 1.08934 9.12621C1.4191 9.29099 1.49061 9.61605 1.32407 9.97383C1.26255 10.1071 1.23747 10.332 1.30918 10.4402C2.1519 11.7026 3.30105 12.3956 4.86481 12.2604C5.52766 12.2022 5.5743 12.1389 5.46771 11.4827C5.44106 11.3213 5.41951 11.1596 5.39286 10.9764C4.66849 10.9784 3.99231 10.8532 3.52089 10.2954C3.24619 9.97049 3.07298 9.55922 2.85804 9.18635C2.79476 9.07467 2.76478 8.93791 2.68327 8.84465C2.37174 8.49001 2.40504 8.25841 2.81964 8.02525C3.13451 7.84695 3.47759 7.76877 3.72741 8.07521C3.96723 8.36833 3.85399 8.65146 3.56753 8.90128C3.48583 8.97299 3.4725 9.21281 3.52579 9.33096C3.81578 9.97715 4.3352 10.3322 5.03645 10.4035C5.13461 10.4135 5.31957 10.3055 5.3329 10.2303C5.35112 10.1237 5.27961 9.93562 5.18987 9.88546C5.00986 9.7877 4.8532 9.65206 4.73068 9.4879C4.60816 9.32374 4.5227 9.13496 4.48019 8.93458C4.45196 8.83671 4.40623 8.74476 4.3452 8.66321C4.11399 8.34344 4.23194 7.86379 4.60833 7.75054C4.75998 7.70547 5.03978 7.72704 5.09817 7.8205C5.19124 7.97039 5.2363 8.26017 5.1497 8.3934C4.8799 8.81662 5.11306 9.06292 5.33114 9.30098L6.04729 9.20301C6.07394 8.95809 6.13388 8.63676 6.13388 8.31347C6.13388 8.09206 6.14055 7.85048 5.79747 7.76544C5.68088 7.73722 5.55098 7.35084 5.59604 7.17097C5.68088 6.83612 5.99242 6.63802 6.33374 6.74775C6.47873 6.79477 6.61529 7.07104 6.63352 7.25757C6.68903 7.76608 6.7068 8.27624 6.68682 8.78802C6.68507 9.03914 6.62825 9.2868 6.52036 9.51356C6.41247 9.74032 6.25612 9.94065 6.06237 10.1004C5.99575 10.1553 5.9742 10.262 5.9307 10.3453L6.02084 10.4819C6.43367 10.3002 6.87335 10.1621 7.25326 9.92543C8.23745 9.31097 8.77705 7.54403 8.33091 6.47814C8.26659 6.31686 8.15052 6.18151 8.00095 6.09333C7.62475 5.91346 7.68942 5.65541 7.82461 5.37718C8.01761 4.9759 8.35893 4.79917 8.65538 4.94612C8.98181 5.10737 8.97358 5.38051 8.89854 5.68538C8.8619 5.83194 8.81193 6.01182 8.8619 6.13839C9.52141 7.83049 8.71043 10.362 6.44366 10.9198C6.31375 10.9515 6.18561 10.9931 5.8874 11.0781C6.14897 11.2897 6.30552 11.4994 6.50694 11.5627C7.42803 11.8558 9.01845 11.2396 9.52318 10.4253C9.57471 10.342 9.61468 10.2387 9.62311 10.1421C9.638 9.97716 9.55472 9.72577 9.63643 9.65739C9.87625 9.45264 10.1627 9.25611 10.4625 9.18616C10.6124 9.15109 10.9088 9.35937 10.9954 9.53101C11.1253 9.78573 10.9588 10.0171 10.7008 10.1588C10.5358 10.2503 10.3242 10.3287 10.2327 10.4735C9.3051 11.9557 7.8977 12.2688 6.22892 12.1356C6.254 12.2688 6.27222 12.4071 6.30553 12.5419C7.03167 15.3799 8.72885 17.4801 11.2235 18.9524C12.2878 19.5801 13.4603 19.82 14.701 19.8184C22.2705 19.8086 29.8399 19.8133 37.4112 19.8133C37.4712 19.8133 37.5311 19.8051 37.6193 19.7984C37.586 19.75 37.5711 19.7083 37.5429 19.6934C34.7798 18.3228 32.5814 16.3143 30.8893 13.7511C30.6346 13.3664 30.3613 13.2148 29.9283 13.2749C28.3727 13.4897 27.0954 12.8317 26.0096 11.8476C24.1991 10.2087 23.1881 8.16691 23.05 5.67697C22.9618 4.06834 23.2067 2.5126 23.4781 0.95041C23.5147 0.743894 23.5813 0.537385 23.6695 0.347523C23.8511 -0.0388609 24.0927 -0.0921601 24.4223 0.171177C24.611 0.323223 24.7898 0.486375 24.9586 0.660626C26.3791 2.12818 28.1249 3.18701 29.7084 4.44805C31.5424 5.90679 32.5048 7.83049 32.523 10.1903C32.5315 11.2196 32.2499 12.1673 31.5453 12.9483C31.3388 13.1781 31.3255 13.3398 31.5187 13.6047C32.4498 14.8802 33.4273 16.1078 34.6815 17.0886C34.75 17.1419 34.8229 17.1905 34.9613 17.2885C34.7665 16.0545 35.043 14.9753 35.6325 13.9825C35.9239 13.4913 36.3085 13.0549 36.6285 12.5786C36.7033 12.4669 36.7417 12.2772 36.7033 12.154C36.4055 11.2115 36.7033 10.2037 37.5545 9.69246C38.1919 9.31821 38.8612 9.00107 39.5546 8.74472C41.0786 8.17024 42.4975 7.43391 43.5134 6.12663C43.9034 5.627 44.1112 4.98923 44.4161 4.42122C44.5109 4.24487 44.6493 4.09008 44.7692 3.92491C45.0057 4.10321 45.3637 4.14984 45.3721 4.56287C45.387 5.4289 45.2104 6.24498 44.796 7.00776C44.6808 7.22093 44.566 7.43568 44.4296 7.63396C43.4801 9.01785 42.5457 10.4119 41.5651 11.7725C40.837 12.7835 39.8444 13.4066 38.5604 13.3431C38.1274 13.3216 37.7077 13.0682 37.1996 12.8935C36.3355 13.7944 35.5741 14.9102 35.4695 16.336C35.4076 17.1619 35.5342 17.9147 36.4069 18.4161C37.8591 19.2504 39.3098 19.8484 41.0519 19.8386C50.2874 19.7896 59.5223 19.7896 68.7566 19.8386C70.4338 19.8466 71.8343 19.2688 73.24 18.486C74.2459 17.9264 74.3676 17.0886 74.2492 16.1044C74.0893 14.7737 73.3432 13.7595 72.4339 12.7585C72.0009 13.3032 71.4229 13.4481 70.7751 13.3564C70.0074 13.2467 69.3115 12.965 68.7599 12.4054C68.4396 12.0845 68.146 11.7381 67.8821 11.3695C67.0811 10.2336 66.3017 9.0829 65.5156 7.93374C64.8479 6.95602 64.3749 5.92011 64.3733 4.69297C64.3733 4.24977 64.6496 4.12477 64.918 3.96665C64.9811 3.92824 65.2575 4.07146 65.2824 4.16806C65.882 6.64468 67.8041 7.73408 69.9157 8.63479C70.6236 8.93653 71.3513 9.20614 72.0193 9.58077C73.0485 10.1588 73.3599 11.0748 73.0303 12.2089C73.0001 12.3121 73.0368 12.4671 73.1018 12.557C73.3383 12.8901 73.6197 13.1915 73.8464 13.5297C74.5909 14.6422 75.0153 15.8462 74.7873 17.3069C75.0786 17.0737 75.3118 16.8974 75.535 16.7073C76.6142 15.7845 77.4735 14.6704 78.2796 13.5146C78.3529 13.4113 78.3529 13.1548 78.2747 13.0633C76.9855 11.5345 77.029 9.81238 77.5619 8.04347C78.0449 6.44151 79.0108 5.15401 80.3732 4.18981C82.0786 2.98089 83.7541 1.73984 85.2396 0.257586C85.6593 -0.160344 86.0155 -0.0704064 86.1456 0.532486C86.3934 1.62197 86.5753 2.72538 86.6903 3.83674C86.8433 5.50885 86.7319 7.18096 86.0173 8.72806C85.1379 10.6286 83.8939 12.2373 81.8537 13.0016C81.2808 13.2166 80.6212 13.2599 80.0001 13.27C79.4805 13.2781 79.1323 13.3498 78.8077 13.8377C77.1305 16.3711 74.9387 18.3495 72.204 19.7034C72.1825 19.7134 72.1727 19.7433 72.1174 19.82H72.6739C79.9717 19.82 87.268 19.7833 94.566 19.8435C96.7546 19.8617 98.5664 19.1589 100.207 17.7748C101.971 16.2876 103 14.3939 103.534 12.1906C102.982 12.1589 102.44 12.1822 101.919 12.0874C100.985 11.9157 100.18 11.5011 99.6473 10.6567C99.5149 10.4632 99.3363 10.3058 99.1277 10.1988C98.8113 10.0338 98.653 9.82059 98.7613 9.47261C98.8479 9.19282 99.2576 9.05292 99.5741 9.21281C99.7661 9.29879 99.9313 9.43515 100.052 9.60743C100.14 9.75066 100.062 9.98891 100.135 10.1504C100.248 10.4019 100.378 10.6853 100.585 10.8499C101.323 11.4396 102.186 11.7092 103.126 11.5893C103.358 11.5593 103.564 11.3313 103.781 11.1929L103.713 11.0617C103.406 10.9493 103.099 10.8388 102.792 10.7299C100.981 10.0873 100.284 7.65728 100.873 6.17326C100.93 6.03336 100.838 5.84017 100.861 5.67872C100.895 5.44556 100.901 5.15068 101.043 5.00412C101.269 4.77096 101.544 4.91085 101.754 5.12913C102.132 5.5255 102.079 5.78355 101.661 6.12507C101.474 6.301 101.355 6.53669 101.324 6.79124C101.121 8.42495 101.752 9.93719 103.58 10.4121C103.633 10.4253 103.694 10.4135 103.841 10.4135C103.773 10.2736 103.753 10.1555 103.681 10.0971C103.138 9.64249 103.036 9.02294 103.035 8.37499C103.035 7.95529 103.047 7.52894 103.115 7.11767C103.138 6.97111 103.383 6.72286 103.458 6.74618C103.709 6.82279 103.986 6.95779 104.137 7.15588C104.221 7.26423 104.122 7.69548 104.021 7.73056C103.459 7.92531 103.611 8.34834 103.633 8.73316C103.643 8.9095 103.696 9.0829 103.719 9.21124L104.424 9.29941C104.649 9.05959 104.858 8.808 104.599 8.38674C104.514 8.25018 104.575 7.91865 104.694 7.79384C104.78 7.70214 105.143 7.72723 105.25 7.83382C105.408 7.99057 105.548 8.28349 105.513 8.48667C105.46 8.79468 105.277 9.09114 105.098 9.36094C104.97 9.55413 104.749 9.68423 104.594 9.8639C104.504 9.96892 104.464 10.1155 104.402 10.2436C104.526 10.2985 104.654 10.4086 104.77 10.3968C105.403 10.3353 105.868 9.99224 106.183 9.45087C106.317 9.21967 106.379 9.01119 106.094 8.78469C105.964 8.68143 105.908 8.35364 105.969 8.1818C106.019 8.0419 106.317 7.88045 106.467 7.91043C106.749 7.97431 107.008 8.11495 107.215 8.31679C107.273 8.37499 107.07 8.69985 106.987 8.90128C106.965 8.95457 106.937 9.00785 106.919 9.06291C106.461 10.4335 105.838 10.9131 104.369 10.9882C104.321 11.2664 104.226 11.5593 104.237 11.8491C104.242 11.9757 104.461 12.2006 104.582 12.2006C105.193 12.1973 105.828 12.2255 106.409 12.0707C107.28 11.8358 107.956 11.2562 108.422 10.4735C108.498 10.3469 108.486 10.1137 108.422 9.97049C108.271 9.62564 108.325 9.32782 108.632 9.14952C108.718 9.10082 108.813 9.07004 108.911 9.05905C109.009 9.04806 109.108 9.05708 109.202 9.08558C109.297 9.11407 109.384 9.16144 109.46 9.2248C109.535 9.28817 109.597 9.3662 109.642 9.4542C109.838 9.82726 109.755 10.0638 109.368 10.2587C109.284 10.3018 109.189 10.3635 109.142 10.4419C107.923 12.4587 106.402 13.1415 104.036 12.6818C103.253 15.9062 101.248 18.1845 98.3816 19.8166H103.671C103.823 19.8166 103.989 19.7917 104.119 19.8484C104.232 19.8983 104.377 20.0498 104.371 20.1497C104.366 20.2516 104.211 20.3862 104.092 20.4313C103.959 20.4812 103.794 20.4513 103.643 20.4513H87.2031L87.1731 20.5194L87.8826 20.8326C90.3525 21.9135 92.3009 23.6072 93.7516 25.8706C93.9832 26.2304 94.1813 26.3385 94.6426 26.2919C95.925 26.162 97.1991 26.3619 98.3301 26.9947C99.3875 27.5861 99.9005 28.6302 100.099 29.7793C100.225 30.5155 100.204 31.2849 100.175 32.0361C100.132 33.2137 99.9671 34.3893 99.9655 35.5651C99.9655 36.6028 100.094 37.642 100.207 38.6762C100.287 39.3972 100.197 39.534 99.4741 39.409C98.9845 39.3241 98.4798 39.2409 98.0301 39.0445C95.8816 38.1066 93.9331 36.8992 92.5825 34.9007C91.8897 33.8764 91.5566 32.7924 91.8297 31.5547C91.9279 31.1135 91.9747 30.6587 92.0496 30.2126C92.2427 29.0783 92.6991 28.0808 93.5218 27.2545C93.6084 27.1664 93.6484 26.9165 93.5884 26.8133C91.5632 23.3807 88.652 21.1923 84.6749 20.5228C84.3166 20.4698 83.9545 20.447 83.5924 20.4546C81.6405 20.4479 79.6868 20.4513 77.7149 20.4513C77.7316 20.5081 77.7316 20.5645 77.7567 20.5827C79.3155 21.7352 80.1649 23.3425 80.6827 25.1594C80.7893 25.5375 80.8477 25.9288 80.9727 26.3003C81.0143 26.4238 81.189 26.5785 81.3123 26.5883C82.9529 26.7167 83.997 27.6542 84.2752 29.2582C84.3119 29.4662 84.4784 29.6545 84.5084 29.8626C84.5384 30.0725 84.5501 30.3756 84.4285 30.4975C84.1771 30.7486 83.8122 30.7038 83.5757 30.4524C83.4558 30.324 83.3792 29.9459 83.4592 29.8744C83.8289 29.5413 83.679 29.1782 83.5842 28.832C83.3126 27.8492 82.1901 27.1046 81.1359 27.1881V28.6102C81.4091 28.7401 81.6722 28.8267 81.8887 28.9766C82.6264 29.488 82.9962 30.1957 82.9413 31.1068C82.9197 31.4681 82.7548 31.823 83.0095 32.1976C83.0694 32.2842 82.8445 32.6541 82.6713 32.7905C82.6179 32.8351 82.5548 32.8667 82.487 32.8829C82.4193 32.8989 82.3487 32.8991 82.2809 32.8833C82.2131 32.8674 82.1498 32.8361 82.0962 32.7917C82.0426 32.7472 82 32.691 81.9718 32.6273C81.8819 32.4358 81.8752 32.0894 81.9936 31.9344C82.7246 30.9736 82.3482 29.6861 81.1124 29.2531C81.1042 29.6978 80.7061 30.0691 81.1824 30.5605C81.4022 30.787 81.3989 31.29 81.3873 31.6646C81.3647 32.0181 81.2719 32.3634 81.1142 32.6806C81.0458 32.8289 80.766 33.0003 80.6312 32.967C80.4028 32.8965 80.2102 32.7409 80.0932 32.5324C80.0432 32.4374 80.2166 32.1092 80.3563 32.0495C80.7827 31.8663 80.9292 31.5632 80.8477 31.1501C80.8178 30.9969 80.6661 30.7586 80.5528 30.7486C80.0299 30.6987 80.0583 30.414 80.2164 30.0492C79.7652 29.8444 79.5136 30.0976 79.2838 30.3956C79.039 30.712 78.7975 31.0551 79.0291 31.4634C79.2156 31.793 79.1705 32.041 78.8892 32.2526C78.7568 32.345 78.5932 32.3812 78.4342 32.3531C78.2753 32.325 78.134 32.2349 78.0414 32.1028C77.8399 31.7932 77.8699 31.5165 78.1946 31.2783C78.2978 31.2018 78.3678 31.0402 78.3964 30.9052C78.5128 30.3556 78.8141 29.9026 79.2704 29.6297C79.582 29.4429 80.0052 29.4396 80.448 29.3363L80.5246 28.8602C80.6328 28.1539 80.5113 28.0357 79.7885 27.974C78.6942 27.8792 77.4968 28.985 77.5051 29.9343C77.5084 30.2974 77.2537 30.4306 76.9273 30.4273C76.5908 30.424 76.2193 30.0858 76.2193 29.7745C76.2193 29.4214 76.4358 29.2797 76.7674 29.2348C76.8922 29.2182 77.0605 29.1498 77.1171 29.0516C77.9099 27.7042 78.8774 27.2396 80.5395 27.511C80.403 26.8299 80.3048 26.182 80.1383 25.5524C79.7985 24.2734 79.3637 23.0229 78.4344 22.0368C77.982 21.5505 77.4752 21.1179 76.9239 20.7475C76.6208 20.5461 76.1845 20.4695 75.8081 20.4695C68.8447 20.4597 61.8798 20.4728 54.9167 20.4728C47.9995 20.4718 41.0806 20.4662 34.1601 20.4562C33.4757 20.4562 32.8695 20.6294 32.3165 21.0608C31.0475 22.0483 30.2547 23.3425 29.815 24.8614C29.5701 25.709 29.3902 26.575 29.1555 27.5378C30.4712 27.2345 31.4521 27.5476 32.2317 28.4537C32.3299 28.5687 32.4498 28.6786 32.5013 28.8152C32.613 29.1116 32.7644 29.2631 33.1175 29.2717C33.3957 29.2781 33.5623 29.5162 33.5239 29.8244C33.4839 30.1391 33.0993 30.4475 32.7695 30.4289C32.4613 30.4107 32.2666 30.2674 32.2348 29.9312C32.1267 28.8034 31.099 27.9274 29.9549 27.9807C29.2303 28.014 29.1138 28.1556 29.2221 28.8667L29.3103 29.4545C30.0082 29.3115 30.5794 29.5015 30.9642 30.1011C31.0941 30.3023 31.1875 30.5255 31.3055 30.7353C31.4305 30.9587 31.617 31.1634 31.6803 31.4015C31.7418 31.6331 31.7705 31.9478 31.6588 32.1343C31.4854 32.4258 31.1407 32.4392 30.8558 32.2493C30.6027 32.081 30.4979 31.8196 30.6811 31.5432C30.9442 31.145 30.751 30.8137 30.5427 30.5039C30.213 30.0109 30.0615 29.9526 29.5485 30.0325C29.6984 30.424 29.6867 30.7202 29.1504 30.7771C29.0438 30.7888 28.9139 31.105 28.8906 31.2933C28.8506 31.6131 28.9772 31.8713 29.3203 32.0046C29.5934 32.1094 29.7886 32.3008 29.6451 32.639C29.5101 32.9588 29.2488 33.0622 28.9423 32.9688C28.8091 32.9288 28.6708 32.7756 28.6141 32.6406C28.5044 32.3726 28.4427 32.0828 28.3743 31.7981C28.2695 31.3582 28.2262 30.8885 28.5542 30.5488C28.8324 30.2623 28.8606 30.0125 28.7227 29.6794C28.6725 29.5595 28.6625 29.4229 28.6345 29.293L28.641 29.2797ZM15.6771 27.6294C15.4688 28.0824 15.2741 28.4738 15.1091 28.8784C14.9026 29.3814 14.7378 29.9012 14.5162 30.3973C14.4613 30.5208 14.2564 30.5788 14.1216 30.6671C14.0614 30.5155 13.9466 30.3607 13.9566 30.2141C13.9699 30.0109 14.0632 29.806 14.1467 29.6128C14.4596 28.8756 14.7799 28.1422 15.1075 27.4128C15.3156 26.9481 15.239 26.8035 14.7294 26.8115C14.3973 26.8221 14.066 26.8499 13.7368 26.8948C11.46 27.1797 10.3961 28.2256 10.1747 30.5088C10.1012 31.2683 10.2011 32.0461 10.2278 32.8138C10.2777 34.2612 10.3492 35.7101 10.3708 37.1573C10.3792 37.6887 10.2675 38.2216 10.2076 38.7828C11.072 38.7095 11.8148 38.385 12.531 37.9918C14.2164 37.0658 15.7902 36.0115 16.8094 34.3094C17.2993 33.49 17.5657 32.6406 17.3341 31.6746C17.2176 31.1901 17.1695 30.692 17.071 30.2024C16.8796 29.2348 16.5032 28.3622 15.6771 27.6294ZM99.5625 38.8161C99.4959 38.2949 99.3793 37.8235 99.3875 37.3571C99.4142 35.8183 99.4908 34.2794 99.5359 32.7405C99.5607 31.896 99.6607 31.0384 99.5476 30.211C99.3262 28.5802 98.5464 27.3362 96.7477 27.0398C96.3446 26.9732 95.9467 26.8666 95.5419 26.8399C95.2255 26.8184 94.9041 26.8899 94.5844 26.9199C94.671 27.213 94.7392 27.5143 94.8491 27.7992C95.1588 28.602 95.4986 29.393 95.7901 30.2024C95.8334 30.3239 95.6736 30.5171 95.6085 30.6771C95.4772 30.5772 95.3338 30.4906 95.2206 30.374C95.1639 30.3156 95.1673 30.2041 95.134 30.1193L94.128 27.6676L93.9715 27.6493C93.7117 28.0106 93.4235 28.3555 93.1987 28.7368C92.6873 29.6079 92.6707 30.6154 92.4426 31.5663C92.1879 32.6373 92.4559 33.5632 93.0355 34.4442C94.4027 36.5193 96.4179 37.7202 98.6629 38.6078C98.9261 38.7111 99.2178 38.7395 99.5625 38.8161ZM30.9824 12.7735C31.0557 12.6719 31.089 12.6219 31.1274 12.5753C32.0949 11.3879 32.0885 10.032 31.742 8.65479C31.2924 6.8612 30.1965 5.52374 28.7143 4.4363C27.3035 3.40039 25.9645 2.26612 24.5957 1.17202C24.4607 1.06367 24.3424 0.937088 24.2025 0.807183C24.1525 0.893787 24.1192 0.93063 24.1092 0.970405C23.6664 2.94739 23.3948 4.94926 23.8378 6.94604C24.389 9.43598 25.7347 11.3712 28.1396 12.4371C28.7484 12.7111 29.4292 12.7823 30.0815 12.6401C29.7002 11.9974 29.312 11.4028 28.9874 10.7748C28.6942 10.1955 28.4356 9.59931 28.2129 8.98944C28.1613 8.85287 28.2879 8.64969 28.3312 8.47648C28.4778 8.56975 28.6392 8.64637 28.7658 8.76295C28.8357 8.82623 28.8442 8.95457 28.8824 9.05449C29.4129 10.3832 30.1193 11.6346 30.9828 12.7753L30.9824 12.7735ZM79.7519 12.6638C80.5329 12.8002 81.299 12.6352 82.0251 12.2539C84.0536 11.188 85.258 9.46263 85.839 7.30264C86.2887 5.627 86.1721 3.91492 85.889 2.21812C85.8125 1.75316 85.7108 1.29193 85.6176 0.817175C84.5968 1.67831 83.6557 2.50614 82.6766 3.28714C81.9569 3.86162 81.1642 4.3446 80.4449 4.92085C78.8376 6.20658 77.9383 7.88691 77.8233 9.95051C77.7666 10.9897 77.9998 11.9539 78.7975 12.7387C79.6474 11.6076 80.3467 10.3708 80.8777 9.0594C80.9776 8.80958 80.9876 8.32992 81.4107 8.49647C81.8037 8.65145 81.5605 9.03783 81.4422 9.28432C80.8995 10.4102 80.3263 11.5227 79.7519 12.6634M72.0391 12.3188C71.8659 12.1838 71.7211 12.0556 71.563 11.949C71.2114 11.7141 70.8284 11.5209 70.5069 11.2511C70.377 11.143 70.3756 10.8814 70.3154 10.69C70.5035 10.7199 70.7218 10.6966 70.8733 10.7866C71.4346 11.1212 71.9725 11.4927 72.5289 11.8558C72.687 11.0763 72.4887 10.5401 71.861 10.1586C71.4566 9.9242 71.0383 9.71455 70.6085 9.53081C69.7274 9.13619 68.8114 8.81467 67.9621 8.36166C66.8233 7.75558 65.8602 6.86581 65.166 5.77845C65.2591 6.1182 65.3491 6.46129 65.5356 6.74108C66.608 8.366 67.6995 9.97827 68.8099 11.5776C69.2678 12.2339 69.949 12.5968 70.7334 12.7634C71.2297 12.8684 71.6627 12.8051 72.0391 12.317V12.3188ZM37.6975 12.2788C38.0557 12.7818 38.472 12.8717 38.9517 12.78C39.8228 12.6135 40.5372 12.1855 41.0452 11.4594C42.0312 10.0487 43.0105 8.63304 43.9631 7.19918C44.2445 6.77459 44.4243 6.28161 44.6508 5.81862C44.316 6.09998 44.0895 6.44131 43.8197 6.74285C42.744 7.94198 41.3881 8.70299 39.8912 9.26101C39.1712 9.529 38.4729 9.85194 37.8025 10.227C37.2314 10.5467 37.058 11.1747 37.2414 11.8624C37.2947 11.8325 37.3446 11.8091 37.3895 11.7792C37.9275 11.4161 38.4554 11.0397 39.0067 10.6966C39.1116 10.6316 39.2998 10.6966 39.4495 10.7033C39.4247 10.8532 39.4495 11.0446 39.3647 11.143C39.2099 11.3213 38.9983 11.4561 38.7985 11.5877C38.4487 11.8191 38.0872 12.0339 37.6959 12.2788H37.6975ZM72.2356 82.2861C73.21 82.9538 74.2243 83.6233 75.2101 84.3346C76.754 85.4504 77.9015 86.9327 78.9873 88.4731C79.099 88.6314 79.3404 88.8162 79.5054 88.8013C82.35 88.5466 84.0869 90.1619 85.4726 92.3321C86.7618 94.3506 86.89 96.5972 86.6335 98.8973C86.5536 99.6168 86.4203 100.331 86.3004 101.047C86.2644 101.256 86.2063 101.46 86.1272 101.657C85.9307 102.148 85.6642 102.218 85.2694 101.87C84.8266 101.479 84.4269 101.039 83.9637 100.674C82.6697 99.6534 81.3374 98.6823 80.0532 97.6513C78.2263 96.1842 77.2553 94.2689 77.2353 91.9106C77.2255 90.8814 77.5002 89.9305 78.2097 89.1526C78.4428 88.8962 78.4062 88.7196 78.2146 88.4581C77.2919 87.1956 76.321 85.9799 75.0786 85.0106C75.0102 84.9573 74.937 84.9091 74.7971 84.8074C74.9871 86.0382 74.7171 87.1175 74.126 88.1083C73.8329 88.5997 73.45 89.0361 73.13 89.5124C73.055 89.6241 73.0134 89.8137 73.0517 89.937C73.3499 90.8847 73.0583 91.8924 72.2074 92.3985C71.5403 92.7824 70.8423 93.11 70.1207 93.3778C68.6316 93.954 67.2393 94.6819 66.2451 95.9643C65.8571 96.4655 65.6438 97.1017 65.3391 97.6697C65.244 97.8481 65.1075 98.0044 64.9909 98.1709C64.7479 97.9995 64.3933 97.9478 64.3847 97.5365C64.368 96.6871 64.5346 95.8828 64.936 95.1332C65.0575 94.9067 65.1774 94.6768 65.3224 94.4654C66.2717 93.0813 67.2059 91.6875 68.1852 90.3267C68.9131 89.3159 69.904 88.6912 71.1881 88.7514C71.6211 88.7711 72.0424 89.0243 72.562 89.2026C73.6079 88.0284 74.5373 86.676 74.2193 84.8176C74.1542 84.4377 74.0311 84.1263 73.6779 83.93C72.9917 83.5501 72.3255 83.127 71.6211 82.784C70.8668 82.428 70.0402 82.2519 69.2062 82.2692C59.8346 82.2859 50.4633 82.301 41.0917 82.2577C39.5246 82.251 38.1656 82.6889 36.8301 83.4251C35.4096 84.2078 35.3026 84.8007 35.5775 86.388C35.7773 87.5454 36.4984 88.4398 37.3162 89.3374C37.7727 88.7629 38.3854 88.6379 39.0616 88.7496C39.8759 88.8862 40.6056 89.2142 41.1503 89.8455C41.5531 90.3134 41.8978 90.8314 42.2542 91.3359C42.9282 92.2853 43.5961 93.2385 44.2578 94.1956C44.9322 95.1716 45.387 96.2177 45.3785 97.4432C45.3752 97.8912 45.0572 97.9811 44.7974 98.1443C44.7508 98.1727 44.4843 98.0013 44.4592 97.8896C43.9796 95.7778 42.4074 94.6868 40.6338 93.8059C39.756 93.3696 38.82 93.0547 37.9307 92.6401C37.0047 92.2086 36.4184 91.4425 36.6449 90.4299C36.8115 89.6873 36.4651 89.3008 36.1038 88.8229C35.2226 87.6604 34.7397 86.3747 34.9614 84.7958C34.6764 85.0223 34.445 85.1971 34.2234 85.387C33.1442 86.3098 32.2832 87.4221 31.4771 88.5797C31.4039 88.6845 31.4007 88.941 31.4771 89.031C32.7678 90.5583 32.7262 92.2819 32.1933 94.0491C31.7417 95.5744 30.7894 96.9033 29.4902 97.8212C27.7448 99.0772 26.0078 100.338 24.4822 101.867C24.1125 102.236 23.7777 102.16 23.6378 101.654C23.4463 100.957 23.3331 100.238 23.2081 99.5251C22.8717 97.6031 22.8783 95.6779 23.5563 93.8374C24.2657 91.9173 25.4482 90.3302 27.3135 89.3474C28.1045 88.931 28.9257 88.6679 29.8383 88.8111C30.308 88.8844 30.6244 88.7363 30.9142 88.2982C32.5979 85.75 34.7929 83.7566 37.5443 82.3958C37.566 82.386 37.5776 82.3558 37.6409 82.2777H37.0813C29.7833 82.2777 22.487 82.3143 15.189 82.2543C13.0006 82.2359 11.1886 82.9372 9.54649 84.3195C7.85948 85.742 6.8418 87.5454 6.27887 89.6423C6.25223 89.7389 6.24557 89.8404 6.22558 89.9754C7.26149 89.8255 8.22236 89.9454 9.09172 90.4817C9.38311 90.6673 9.64812 90.8914 9.87958 91.1478C10.156 91.4543 10.3126 91.8507 10.7656 92.0121C10.8955 92.0587 11.0121 92.4669 10.9537 92.655C10.8522 92.9832 10.4991 92.9947 10.2209 92.8948C10.0116 92.8125 9.83061 92.6713 9.69972 92.4884C9.60802 92.3519 9.68463 92.1105 9.61311 91.9488C9.49986 91.6974 9.37152 91.4143 9.16677 91.2493C8.81747 90.9567 8.41131 90.7396 7.97392 90.6118C7.53653 90.484 7.0774 90.4482 6.62549 90.5068C6.39233 90.5365 6.18562 90.7648 5.96578 90.9014L6.03239 91.0362L6.95172 91.3677C8.77039 92.0139 9.46165 94.4454 8.87384 95.9226C8.81702 96.0625 8.90519 96.2541 8.88364 96.4156C8.85033 96.6487 8.847 96.9436 8.70534 97.0917C8.48061 97.3269 8.20413 97.1901 7.99429 96.9703C7.61457 96.5739 7.6661 96.3074 8.08246 95.9726C8.26896 95.7977 8.38857 95.5633 8.42065 95.3097C8.6254 93.6893 8.00428 92.1653 6.16896 91.6875C6.11566 91.6741 6.05395 91.6857 5.90915 91.6857C5.97244 91.8209 5.99242 91.9388 6.06237 92.0005C6.69348 92.5535 6.74521 93.278 6.69191 94.0391C6.67193 94.3089 6.69524 94.5869 6.63352 94.8451C6.58865 95.0332 6.40368 95.3581 6.33707 95.343C6.08235 95.2915 5.78747 95.1784 5.63425 94.9866C5.54099 94.87 5.62446 94.4121 5.72595 94.3737C6.30396 94.159 6.13389 93.7226 6.10724 93.3262C6.09568 93.1646 6.04571 93.0049 6.02063 92.8881L5.3231 92.8C5.1017 93.038 4.8848 93.2878 5.14794 93.7093C5.23298 93.8459 5.17302 94.1772 5.05467 94.3022C4.96807 94.3937 4.605 94.3704 4.49841 94.2638C4.34029 94.1073 4.2006 93.8141 4.23391 93.6109C4.28524 93.3045 4.46707 93.0032 4.64831 92.7383C4.78664 92.5351 5.0247 92.4003 5.19124 92.2137C5.27295 92.122 5.34799 91.9672 5.32644 91.8591C5.31116 91.7823 5.12462 91.6841 5.02313 91.6926C4.74225 91.7113 4.46993 91.797 4.22888 91.9424C3.98784 92.0878 3.78507 92.2887 3.63748 92.5284C3.46114 92.7949 3.30105 93.0613 3.68411 93.3429C3.80226 93.4295 3.84085 93.7508 3.7807 93.9141C3.73074 94.0492 3.46427 94.2123 3.32614 94.1872C3.04948 94.1372 2.73304 94.024 2.54651 93.8292C2.32667 93.5976 2.52652 93.3596 2.75636 93.193C2.79633 93.163 2.80964 93.0913 2.82806 93.0365C3.28929 91.6624 3.91394 91.1829 5.37954 91.1112C5.4295 90.8181 5.5161 90.5117 5.51277 90.2052C5.51277 90.0955 5.28784 89.897 5.16636 89.897C4.58345 89.8937 3.97722 89.8504 3.42449 89.9953C2.51986 90.2318 1.81038 90.8148 1.32407 91.6242C1.24765 91.7507 1.25941 91.9839 1.3225 92.1271C1.48062 92.4837 1.40734 92.8133 1.07602 92.9732C0.903216 93.0568 0.704519 93.0692 0.522641 93.0078C0.340762 92.9465 0.190228 92.8162 0.103396 92.645C-0.0948904 92.2719 -0.00986458 92.0339 0.374756 91.8407C0.464898 91.8003 0.543411 91.7378 0.603029 91.659C1.8288 89.6372 3.34612 88.9544 5.70929 89.4175C6.49362 86.1948 8.49746 83.9147 11.3652 82.2826H6.03063C5.88074 82.2826 5.71419 82.2976 5.58429 82.2394C5.48436 82.196 5.36778 82.0478 5.37111 81.9495C5.37444 81.8515 5.50278 81.7114 5.60623 81.6763C5.75769 81.6264 5.93403 81.6464 6.10077 81.6464H22.5403L22.567 81.5817L21.4545 81.0668C19.1528 79.996 17.359 78.3454 15.9933 76.2254C15.7621 75.8657 15.5637 75.7573 15.104 75.8042C13.8216 75.9356 12.5476 75.734 11.4167 75.1011C10.3592 74.51 9.84627 73.4657 9.64798 72.3165C9.52141 71.5804 9.54317 70.8109 9.57158 70.0599C9.61468 68.8823 9.78122 67.7067 9.78122 66.5307C9.78122 65.4782 9.64485 64.424 9.53493 63.3748C9.46498 62.7035 9.56314 62.537 10.226 62.6886C11.0005 62.8652 11.7949 63.0584 12.501 63.4063C14.335 64.309 16.0035 65.4382 17.1676 67.1938C17.862 68.2412 18.1935 69.3373 17.9104 70.5862C17.7238 71.4105 17.6341 72.2665 17.3475 73.0526C17.1261 73.6589 16.7064 74.2102 16.2967 74.7214C16.0733 74.9996 16.0568 75.1611 16.23 75.4509C17.6623 77.8309 19.6225 79.6129 22.1624 80.7437C23.503 81.3399 24.8986 81.673 26.3809 81.6515C28.2579 81.623 30.135 81.6448 32.0316 81.6448C32.015 81.5882 32.015 81.5331 31.9901 81.5135C30.4312 80.3606 29.582 78.7536 29.064 76.9365C28.9574 76.5585 28.899 76.167 28.774 75.7957C28.7325 75.6725 28.5593 75.5175 28.4343 75.5077C26.7923 75.3794 25.7499 74.4418 25.4698 72.8379C25.4333 72.6298 25.2668 72.4415 25.2386 72.2334C25.2084 72.0234 25.1968 71.7203 25.3169 71.5988C25.5681 71.3472 25.933 71.3923 26.1695 71.6421C26.2894 71.7702 26.366 72.1484 26.286 72.2201C25.9163 72.5532 26.0662 72.9161 26.161 73.2625C26.4326 74.2451 27.5551 74.9879 28.6092 74.908V73.5723C28.1629 73.2627 27.7432 73.0444 27.4183 72.7297C26.9422 72.2683 26.749 71.6638 26.8023 70.991C26.8305 70.6295 26.9904 70.2749 26.7357 69.9016C26.6757 69.8134 26.9005 69.4453 27.0737 69.3087C27.127 69.264 27.19 69.2323 27.2577 69.2161C27.3254 69.1999 27.3959 69.1996 27.4637 69.2153C27.5315 69.2309 27.5947 69.2621 27.6484 69.3064C27.7022 69.3507 27.7449 69.4068 27.7732 69.4704C27.8633 69.6618 27.8698 70.0082 27.7516 70.1632C27.0204 71.1258 27.397 72.4098 28.6325 72.8461C28.641 72.4015 29.0389 72.0301 28.5626 71.5404C28.3428 71.3139 28.3461 70.8109 28.3561 70.4363C28.3661 70.0934 28.4827 69.7351 28.6292 69.4204C28.6978 69.2721 28.9774 69.0991 29.1106 69.1339C29.3388 69.2057 29.5315 69.3609 29.6502 69.5685C29.7002 69.6635 29.5288 69.99 29.3871 70.0533C28.9874 70.2298 28.8175 70.5063 28.8908 70.9075C28.9223 71.076 29.0707 71.3406 29.1888 71.3523C29.71 71.4091 29.6851 71.6887 29.5239 72.0538C29.9749 72.2583 30.2265 72.0052 30.4565 71.7089C30.701 71.3923 30.9426 71.0492 30.7128 70.6413C30.5129 70.2892 30.5729 70.0194 30.8927 69.8317C31.1858 69.6602 31.4971 69.7117 31.697 70.0015C31.9068 70.3048 31.8702 70.5862 31.5455 70.8245C31.4423 70.9009 31.3723 71.0625 31.3439 71.1975C31.2273 71.7471 30.926 72.2001 30.4696 72.4731C30.1581 72.6598 29.7368 72.6631 29.2921 72.7664C29.2772 72.8645 29.2439 73.0528 29.2157 73.2425C29.1073 73.9487 29.2288 74.067 29.9516 74.1303C31.0475 74.2251 32.2432 73.1193 32.235 72.1717C32.2317 71.8086 32.4864 71.6754 32.813 71.6787C33.1493 71.6821 33.5207 72.0201 33.5207 72.3316C33.5207 72.6847 33.3042 72.8261 32.9727 72.8712C32.8479 72.8879 32.6796 72.9562 32.623 73.0544C31.8286 74.4034 30.8627 74.8682 29.2006 74.595C29.3371 75.2761 29.4353 75.9239 29.6018 76.5534C29.9416 77.8325 30.3764 79.0833 31.3057 80.0693C31.7581 80.5555 32.265 80.9881 32.8163 81.3585C33.1193 81.5598 33.5556 81.6368 33.932 81.6368C40.8955 81.6466 47.8603 81.633 54.8252 81.633C61.7423 81.6343 68.6612 81.6405 75.5816 81.6515C76.2862 81.6515 76.9006 81.4633 77.462 81.0186C78.7093 80.0326 79.4921 78.7485 79.9284 77.2449C80.1733 76.3969 80.3532 75.5308 80.5879 74.5684C79.2722 74.8731 78.2916 74.5586 77.5117 73.6522C77.4138 73.5374 77.2937 73.4275 77.2421 73.2909C77.1305 72.9944 76.979 72.8428 76.6259 72.8346C76.3477 72.8279 76.1812 72.5896 76.2196 72.2816C76.2595 71.9668 76.6441 71.6587 76.9739 71.677C77.2821 71.6954 77.4769 71.8386 77.5088 72.175C77.6168 73.3025 78.6444 74.1785 79.7885 74.1252C80.5131 74.0919 80.6297 73.9504 80.5213 73.2409L80.4331 72.6531C79.7352 72.7962 79.1641 72.6063 78.7794 72.0067C78.6493 71.8053 78.5561 71.5821 78.4379 71.3723C78.3129 71.1491 78.1264 70.9442 78.0631 70.7061C78.0016 70.4745 77.9732 70.1599 78.0846 69.9733C78.258 69.6818 78.6027 69.6684 78.8876 69.8583C79.1407 70.0268 79.2456 70.288 79.0624 70.5645C78.7992 70.9626 78.9924 71.2939 79.2023 71.6037C79.4221 71.927 79.6706 72.2616 80.1933 72.0733C80.045 71.6836 80.055 71.3872 80.5913 71.3323C80.6979 71.3206 80.8278 71.0026 80.8495 70.8143C80.8895 70.4945 80.7629 70.2365 80.4198 70.1032C80.1467 69.9982 79.9517 69.8068 80.0949 69.4686C80.2301 69.1488 80.4913 69.0456 80.7978 69.1388C80.931 69.1788 81.0693 69.332 81.126 69.467C81.2357 69.7351 81.2974 70.0248 81.3658 70.3097C81.4706 70.7494 81.5157 71.2208 81.1859 71.5588C80.9061 71.8453 80.8828 72.0967 81.0176 72.4282C81.066 72.5481 81.0776 72.6849 81.1058 72.8128C82.2685 72.5448 82.7563 71.0659 81.9969 70.2065C81.7755 69.9549 81.7604 69.6769 81.9787 69.427C82.1985 69.1772 82.4832 69.1508 82.753 69.3471C83.0077 69.5319 83.1294 69.765 82.9548 70.0917C82.884 70.2333 82.8551 70.3921 82.8714 70.5496C83.0845 72.0387 82.5632 72.9394 81.1342 73.4592V74.8897C82.31 75.1229 83.8255 73.7772 83.669 72.593C83.6541 72.4797 83.4711 72.3833 83.4676 72.275C83.4592 72.06 83.4492 71.7769 83.5708 71.6437C83.8022 71.3923 84.172 71.349 84.4218 71.6055C84.5417 71.7289 84.5284 72.0318 84.4951 72.2399C84.4569 72.4782 84.2854 72.6947 84.2452 72.9345C84.0039 74.3903 82.8596 75.4376 81.3858 75.4909C81.0827 75.5026 80.9927 75.5908 80.9277 75.889C80.4564 78.0776 79.657 80.0908 77.7766 81.4898C77.7453 81.5133 77.7267 81.5564 77.6601 81.6481H78.1382C79.7885 81.6481 81.4391 81.6115 83.0879 81.6563C85.8574 81.7296 88.2272 80.7121 90.3659 79.0582C91.6602 78.0512 92.7405 76.7959 93.5436 75.366C93.6117 75.2461 93.665 74.9963 93.6035 74.9397C92.3809 73.8287 92.1281 72.3298 91.843 70.8127C91.5799 69.4104 91.8497 68.1946 92.6758 67.0437C93.4584 65.9616 94.4465 65.0443 95.5836 64.3441C96.7397 63.6231 97.897 62.8985 99.2894 62.712L99.4692 62.682C100.194 62.5854 100.345 62.7135 100.184 63.4248C99.799 65.1069 99.972 66.7923 100.07 68.4826C100.14 69.6869 100.28 70.9175 100.115 72.0984C99.7941 74.3801 98.5015 75.5059 96.2065 75.7458C95.5821 75.8106 94.9441 75.7491 94.3146 75.7791C94.1731 75.7857 93.9866 75.8957 93.9082 76.0156C92.8474 77.6659 91.5483 79.0933 89.8978 80.1608C89.1767 80.6255 88.3822 80.9753 87.6179 81.3732C87.4748 81.4483 87.3214 81.4998 87.1849 81.6481H87.6528C92.9966 81.6459 98.341 81.6475 103.686 81.653C103.948 81.653 104.357 81.5249 104.366 81.9561C104.374 82.3825 103.968 82.2794 103.703 82.281C102.067 82.2892 100.432 82.2843 98.798 82.2859C98.6549 82.2859 98.5133 82.2992 98.225 82.3125C101.231 83.9147 103.236 86.1783 104.024 89.434C105.075 89.1426 106.066 89.1642 107.02 89.629C107.915 90.0653 108.629 90.6915 109.104 91.5809C109.178 91.7001 109.285 91.7954 109.412 91.8556C109.755 92.0339 109.805 92.2852 109.65 92.6119C109.462 93.0065 109.032 93.1713 108.659 92.9714C108.351 92.8068 108.183 92.5084 108.394 92.2186C108.629 91.8989 108.496 91.699 108.319 91.4676C107.455 90.3318 106.349 89.7022 104.882 89.8388C104.212 89.9003 104.169 89.9587 104.276 90.6149C104.302 90.7764 104.324 90.9396 104.351 91.1294C105.167 91.1028 105.875 91.3244 106.382 91.9641C106.576 92.2053 106.692 92.5088 106.844 92.7833C106.949 92.9714 107.037 93.1713 107.16 93.3478C107.357 93.6276 107.285 93.8725 106.925 94.0773C106.611 94.2556 106.269 94.3355 106.016 94.0306C105.775 93.7393 105.881 93.4495 106.176 93.2063C106.251 93.1446 106.282 92.9634 106.256 92.8548C106.111 92.2753 105.26 91.6541 104.667 91.6941C104.572 91.7008 104.411 91.804 104.409 91.8673C104.406 91.9855 104.462 92.1653 104.552 92.2171C104.732 92.3145 104.889 92.4498 105.012 92.6137C105.135 92.7776 105.22 92.9661 105.263 93.1664C105.287 93.263 105.338 93.3578 105.396 93.4377C105.63 93.7593 105.513 94.2356 105.137 94.3522C104.985 94.3988 104.706 94.3788 104.645 94.2855C104.55 94.1372 104.504 93.8459 104.591 93.7126C104.862 93.2914 104.63 93.0431 104.411 92.8015L103.666 92.9066C103.658 93.2363 103.636 93.646 103.648 94.054C103.65 94.1323 103.773 94.2389 103.863 94.2738C104.186 94.4004 104.311 94.6768 104.147 94.9184C103.98 95.1515 103.729 95.3098 103.446 95.3597C103.128 95.3981 103.088 95.0932 103.092 94.8052C103.1 94.2957 103.045 93.7843 103.062 93.2745C103.065 93.0309 103.122 92.791 103.228 92.5717C103.334 92.3525 103.487 92.1592 103.676 92.0055C103.743 91.9506 103.768 91.844 103.854 91.6824C103.235 91.7157 102.77 91.9373 102.384 92.2537C101.399 93.0598 101.143 94.1572 101.335 95.3614C101.374 95.6095 101.619 95.8544 101.827 96.0376C102.064 96.2457 102.056 96.4455 101.939 96.6805C101.784 96.9902 101.583 97.2716 101.178 97.1868C100.88 97.125 100.703 96.857 100.821 96.6072C101.015 96.2057 100.806 95.8944 100.742 95.538C100.427 93.7826 101.148 91.7923 103.25 91.1945C103.393 91.1527 103.538 91.1145 103.853 91.0279C103.593 90.8148 103.44 90.6067 103.24 90.5416C102.342 90.2501 100.768 90.8381 100.254 91.6408C100.18 91.7556 100.154 91.9406 100.185 92.0738C100.305 92.5602 99.8538 92.665 99.6191 92.8315C99.4541 92.9499 99.0511 92.8899 98.8479 92.7616C98.5515 92.5735 98.708 92.1189 99.0778 91.9255C99.2443 91.8389 99.4392 91.7441 99.5343 91.5958C100.427 90.1934 101.759 89.8355 103.306 89.9656L103.626 89.9903C103.256 89.0478 102.988 88.1485 102.565 87.3289C101.371 85.0172 99.5392 83.3802 97.0559 82.5608C96.4113 82.3476 95.6887 82.301 95.0007 82.2992C87.4463 82.281 79.8918 82.2877 72.3373 82.2894C72.2773 82.2894 72.2174 82.2959 72.2207 82.2959L72.2356 82.2861ZM10.1927 63.2715C10.2593 63.7927 10.3759 64.2642 10.3675 64.7321C10.3408 66.2709 10.2642 67.8098 10.2193 69.3471C10.1943 70.1916 10.1043 71.0474 10.2076 71.8768C10.3592 73.0977 10.8091 74.2602 12.0647 74.7298C12.9123 75.0463 13.85 75.1395 14.756 75.2694C15.219 75.3361 15.3072 75.1329 15.1126 74.6948C14.7803 73.9502 14.4538 73.203 14.1331 72.4533C14.0346 72.2494 13.9688 72.0312 13.9382 71.8069C13.9299 71.6821 14.0714 71.5455 14.1447 71.4156C14.2646 71.4871 14.4078 71.5371 14.4962 71.637C14.5695 71.7203 14.5746 71.8619 14.621 71.9734L15.6269 74.425L15.7837 74.4434C16.0433 74.0819 16.3315 73.7372 16.5547 73.3559C17.0661 72.4848 17.0826 71.4771 17.311 70.5262C17.5657 69.4553 17.2975 68.5293 16.7179 67.6483C15.3505 65.5734 13.3353 64.3723 11.092 63.4847C10.8289 63.3815 10.5375 63.3531 10.1927 63.2764V63.2715ZM99.5558 63.3284C99.4725 63.3231 99.4275 63.3131 99.3842 63.3197C99.2943 63.3315 99.2027 63.3415 99.1161 63.3664C97.0394 63.9567 95.1721 65.1224 93.7299 66.729C92.9838 67.5566 92.2676 68.4893 92.3493 69.6504C92.4394 70.9193 92.5727 72.2217 93.2087 73.3775C93.4203 73.7621 93.725 74.0936 93.9881 74.45L94.1396 74.4167C94.4894 73.5507 94.8358 72.6836 95.1788 71.8153C95.2639 71.5988 95.3271 71.3341 95.6269 71.4323C95.9267 71.5304 95.8517 71.7869 95.7617 72.0052C95.3958 72.8989 95.0233 73.79 94.6443 74.6783C94.4427 75.148 94.5193 75.3261 95.0225 75.2712C95.7851 75.1895 96.5463 75.0596 97.2957 74.8964C98.0801 74.7249 98.6247 74.2135 99.0094 73.519C99.5157 72.603 99.6673 71.627 99.6123 70.5878C99.5113 68.6581 99.4353 66.7273 99.3842 64.7953C99.3709 64.3208 99.4908 63.8411 99.5541 63.3282L99.5558 63.3284ZM85.566 101.27C85.6027 101.197 85.6425 101.149 85.6542 101.092C86.0906 99.1154 86.3621 97.1117 85.9125 95.1149C85.356 92.6452 84.0139 90.7233 81.6323 89.6574C81.0161 89.3811 80.3665 89.3209 79.6504 89.4442C79.7536 89.609 79.8418 89.7273 79.9084 89.8572C80.4531 90.9163 81.0061 91.9721 81.519 93.0465C81.5856 93.1864 81.4426 93.4279 81.3975 93.6227C81.2525 93.5028 81.0494 93.413 80.971 93.2583C80.7378 92.8017 80.5897 92.3003 80.3432 91.854C79.8735 91.0013 79.3588 90.1752 78.8425 89.301C78.0016 90.1572 77.7649 91.1212 77.8284 92.1638C77.9598 94.3373 78.9574 96.0543 80.6761 97.3566C81.5555 98.0228 82.4848 98.6257 83.3475 99.3121C84.1136 99.9214 84.8197 100.604 85.5676 101.27H85.566ZM30.8942 89.2876C30.3313 90.2787 29.7884 91.2013 29.2805 92.1424C29.0656 92.5386 28.939 92.9816 28.7342 93.3846C28.6774 93.4979 28.4878 93.5445 28.358 93.6211C28.2946 93.4846 28.1946 93.3513 28.1813 93.2081C28.1695 93.0849 28.2346 92.9416 28.2979 92.8235C28.8363 91.7955 29.3776 90.7679 29.9216 89.7406L30.0833 89.4342C29.2088 89.2976 28.4394 89.4577 27.7117 89.8439C25.6896 90.9182 24.484 92.6438 23.9127 94.8054C23.4215 96.6691 23.6213 98.556 23.9577 100.426C24.0077 100.705 24.0825 100.978 24.1592 101.309C24.3224 101.163 24.4289 101.061 24.5422 100.966C25.6014 100.09 26.6558 99.2072 27.7265 98.3461C28.2446 97.9297 28.8124 97.5751 29.3273 97.1552C30.9242 95.8581 31.8235 94.1809 31.9319 92.1173C31.9868 91.0932 31.752 90.1388 30.8942 89.2845V89.2876ZM65.0992 96.2625L65.1925 96.2943C65.4723 95.9396 65.7305 95.5648 66.0386 95.2351C67.1029 94.0928 68.425 93.3631 69.8775 92.8235C70.5974 92.5564 71.2947 92.2317 71.9625 91.8526C72.5354 91.5293 72.7104 90.8598 72.4987 90.2469C71.9476 90.61 71.4046 90.9864 70.8399 91.3279C70.7018 91.4112 70.4935 91.3794 70.317 91.4012C70.3636 91.2198 70.3536 90.9748 70.4686 90.8682C70.72 90.6367 71.0382 90.4785 71.3249 90.282C71.5663 90.1174 71.7994 89.944 72.0393 89.7726C71.6644 89.281 71.2332 89.2181 70.7369 89.3211C69.9008 89.4959 69.2129 89.9123 68.725 90.6084C67.7346 92.0155 66.7614 93.4345 65.8056 94.8653C65.5189 95.2968 65.3308 95.7931 65.0992 96.2592V96.2625ZM44.5576 96.3325L44.6724 96.2625C44.371 95.7014 44.1081 95.1134 43.7615 94.5822C43.1004 93.5712 42.3909 92.5937 41.703 91.601C41.4616 91.2529 41.24 90.8931 40.9869 90.5551C40.5028 89.9046 39.7896 89.4622 38.9916 89.3176C38.4971 89.2177 38.0657 89.291 37.721 89.779C37.9175 89.9256 38.1007 90.0722 38.2955 90.2036C38.6204 90.4219 38.9768 90.6053 39.2714 90.8565C39.3929 90.9597 39.3929 91.2062 39.448 91.3879C39.2614 91.3645 39.04 91.3979 38.8935 91.3115C38.3306 90.9748 37.7892 90.6002 37.2347 90.2369C37.0631 90.9349 37.2414 91.538 37.8076 91.8691C38.3772 92.2022 38.9783 92.507 39.5996 92.7253C41.6164 93.4346 43.3835 94.4691 44.5576 96.3325Z" fill="#5C3718"/>
<path d="M19.5623 13.203C20.5847 13.2863 21.3925 13.5727 22.0987 14.0857C22.4067 14.3003 22.6717 14.5709 22.8799 14.8833C23.258 15.5044 22.9398 16.1124 22.2137 16.1324C21.7158 16.1461 21.2194 16.0705 20.7481 15.9092C20.1135 15.6878 19.5206 15.3497 18.9063 15.0614C18.9063 15.846 18.9095 16.652 18.9028 17.4597C18.9028 17.5763 18.8597 17.6979 18.8146 17.8094C18.6779 18.1425 18.4913 18.449 18.0901 18.4807C17.6952 18.5122 17.4072 18.2808 17.2773 17.9393C17.109 17.493 17.0024 17.0218 16.8943 16.557C16.8476 16.3572 16.8676 16.1424 16.8525 15.8293C16.646 16.0825 16.5077 16.2672 16.3548 16.4371C15.9448 16.8885 15.4802 17.2165 14.824 17.185C14.2395 17.1566 13.938 16.8619 13.9964 16.2557C14.0828 15.3546 14.5724 14.6768 15.2786 14.1505C15.5868 13.9207 15.9332 13.7424 16.2663 13.5376C15.7282 13.4093 15.1653 13.3727 14.7023 13.1379C14.1247 12.854 13.6015 12.4707 13.1568 12.0054C12.6456 11.4492 12.9321 10.7597 13.6615 10.5265C14.2977 10.3233 14.8906 10.465 15.4569 10.7563C15.8148 10.9413 16.1513 11.1711 16.4777 11.3677C16.4029 10.6979 16.2696 10.0284 16.2763 9.3607C16.2812 8.91102 16.4028 8.41824 16.6194 8.025C17.0373 7.26712 17.8367 7.27066 18.1982 8.04852C18.478 8.64946 18.6061 9.33228 18.7214 9.99356C18.7978 10.4332 18.736 10.8978 18.736 11.4308L18.9643 11.1376C19.434 10.5465 19.867 9.91852 20.3899 9.38225C20.6548 9.11087 21.071 8.93258 21.4492 8.83598C21.9655 8.70608 22.3818 9.04249 22.3467 9.57211C22.3154 10.0404 22.2419 10.5747 21.9888 10.9411C21.5757 11.5391 21.0146 12.037 20.4883 12.5484C20.2551 12.7749 19.952 12.933 19.5639 13.2028L19.5623 13.203ZM17.8351 12.5002L17.9617 12.4351C17.9917 12.1971 18.0283 11.9606 18.0499 11.7207C18.1449 10.713 18.2597 9.69868 17.8551 8.72959C17.7585 8.49799 17.5504 8.31323 17.3939 8.10651C17.2328 8.34751 17.0735 8.58963 16.9158 8.83285C16.9007 8.85597 16.9074 8.8926 16.9007 8.92101C16.6942 9.89697 16.954 10.8079 17.3188 11.6939C17.4388 11.9839 17.6602 12.2319 17.8334 12.5002H17.8351ZM21.7922 9.50725L21.6472 9.39068C21.4407 9.46239 21.196 9.48571 21.0361 9.61405C19.9687 10.4699 19.279 11.6008 18.7511 12.8515C19.8636 12.267 20.9629 11.6641 21.5558 10.485C21.7023 10.1919 21.719 9.83544 21.794 9.50725H21.7922ZM17.2456 12.8748C17.1272 12.7318 17.034 12.5517 16.8874 12.4484C16.3383 12.0525 15.7733 11.6791 15.1937 11.3293C14.9345 11.1787 14.6422 11.094 14.3426 11.0828C14.0845 11.0794 13.823 11.2293 13.5632 11.3126C13.6931 11.5491 13.7763 11.8357 13.9629 12.0121C14.8655 12.8683 16.0247 12.8965 17.2471 12.8732L17.2456 12.8748ZM18.5195 13.7741L18.4529 13.914C19.0176 14.2753 19.5541 14.7001 20.1568 14.9819C20.7179 15.2448 21.3461 15.3714 21.9537 15.5246C22.0869 15.5579 22.2554 15.4545 22.4085 15.4129C22.3536 15.2631 22.307 15.1114 22.2404 14.9666C22.2104 14.9019 22.1437 14.85 22.0856 14.8034C21.0361 13.9658 19.8521 13.6094 18.5215 13.7728L18.5195 13.7741ZM17.1157 13.9689L17.0124 13.879C16.6029 14.1006 16.1397 14.2604 15.8 14.5602C15.3836 14.9282 15.0405 15.3945 14.7274 15.8593C14.6157 16.0241 14.6874 16.3123 14.6741 16.5437C14.9173 16.517 15.2137 16.5737 15.3936 16.4522C16.288 15.8475 16.7544 14.9382 17.1174 13.9689H17.1157ZM17.7818 14.2221C17.2256 15.2233 17.377 17.2998 18.0332 17.8627C18.6878 17.1732 18.5395 14.7299 17.7818 14.2221ZM90.9817 11.2809C91.0201 10.6413 91.0217 9.91853 91.1231 9.20748C91.1941 8.79125 91.3397 8.39127 91.5528 8.02677C91.9643 7.29397 92.6738 7.28379 93.1317 7.99503C93.5764 8.68472 93.5432 9.46572 93.4515 10.2367C93.4066 10.6082 93.2982 10.9715 93.2016 11.4125C93.5665 11.1878 93.8698 10.9815 94.1911 10.8081C94.7771 10.4932 95.3902 10.3118 96.0646 10.52C96.8441 10.7597 97.0806 11.4259 96.5709 12.0705C95.8597 12.9681 94.8755 13.348 93.7645 13.4528C93.6779 13.461 93.5931 13.4646 93.3715 13.4794L94.0743 13.8825C94.8389 14.3204 95.3969 14.9351 95.6665 15.7844C95.8031 16.2141 95.893 16.6871 95.495 17.0071C95.092 17.3333 94.5706 17.27 94.1709 17.0235C93.7097 16.7386 93.3284 16.3223 92.9218 15.971C92.8703 16.374 92.847 16.8403 92.7386 17.2867C92.6571 17.6077 92.5128 17.9093 92.314 18.1743C91.9643 18.6324 91.3696 18.6157 91.1182 18.1027C90.9159 17.6518 90.7952 17.1685 90.7618 16.6754C90.7168 16.1408 90.7967 15.5946 90.8234 15.0217C90.5225 15.1971 90.2172 15.3715 89.9074 15.5448C89.2212 15.9243 88.4851 16.1741 87.7023 16.1357C87.3959 16.1209 86.9462 15.9459 86.8382 15.7145C86.7168 15.4529 86.7981 14.9633 86.9832 14.7201C87.671 13.8259 88.6683 13.4344 89.7542 13.2479C89.843 13.2335 89.9313 13.2174 90.0191 13.1997C90.029 13.1979 90.0357 13.1761 90.0706 13.1264C89.793 12.9344 89.5171 12.7395 89.243 12.5417C88.4451 11.9657 87.744 11.3026 87.4758 10.3133C87.3445 9.83035 87.2311 9.30917 87.7174 8.93591C88.0654 8.66944 88.76 8.77132 89.2112 9.23569C89.8508 9.89364 90.4188 10.6198 90.9833 11.2777L90.9817 11.2809ZM91.7911 12.4767C91.8695 12.4369 91.9177 12.4269 91.941 12.3985C92.8521 11.3012 93.0751 10.0386 92.777 8.6763C92.732 8.46802 92.509 8.3001 92.3691 8.11338C92.2225 8.28658 92.0227 8.43667 91.9361 8.63652C91.3914 9.88698 91.6598 11.1694 91.7895 12.4784L91.7911 12.4767ZM88.1071 9.37245C87.6408 10.5398 89.4277 12.2437 91.0516 12.8448C90.5089 11.639 89.8192 10.57 88.8483 9.70711C88.6552 9.53567 88.3585 9.48061 88.1071 9.37245ZM92.5121 12.8797L92.5887 13.0165C93.24 12.9165 93.9144 12.893 94.534 12.6932C95.0454 12.5286 95.5051 12.1753 95.953 11.8573C96.0913 11.7589 96.2179 11.4558 96.1628 11.3277C96.1029 11.1911 95.8199 11.0761 95.6383 11.0828C95.3019 11.0961 94.927 11.1312 94.6424 11.2893C94.0128 11.639 93.4232 12.0621 92.8303 12.4735C92.6953 12.5668 92.6171 12.7416 92.5121 12.8781V12.8797ZM87.331 15.4196C88.1671 15.8926 90.4803 14.7201 91.2497 13.811C89.7375 13.491 87.5957 14.3637 87.331 15.4196ZM92.6072 13.8423C92.9318 14.8951 93.4315 15.7194 94.2009 16.3456C94.4092 16.5141 94.7756 16.4888 95.0689 16.5521C95.037 16.2657 95.0689 15.9525 94.9603 15.6994C94.5373 14.7035 93.6131 14.3122 92.6054 13.8425L92.6072 13.8423ZM91.9743 14.2271C91.2199 14.6986 91.0599 17.1317 91.7094 17.8645C92.3673 17.3315 92.5288 15.2515 91.9743 14.2271ZM16.8194 86.2294C16.8825 85.7249 16.9076 85.2735 17.004 84.8389C17.0717 84.5449 17.1919 84.2656 17.3588 84.0144C17.7401 83.4383 18.4031 83.4481 18.6894 84.0695C18.8795 84.4809 18.9259 84.9655 18.9976 85.4234C19.0392 85.6898 19.0192 85.968 18.9976 86.2394C18.9776 86.5079 18.9226 86.7743 18.8744 87.1006C19.231 86.8956 19.5206 86.6642 19.8521 86.551C20.5602 86.3074 21.282 86.1055 22.0136 85.9463C22.3751 85.8699 22.7649 86.0014 22.9447 86.3678C23.1295 86.7424 23.0063 87.1188 22.7464 87.4239C22.1469 88.1281 21.3508 88.5129 20.4716 88.7427C20.215 88.8093 19.9505 88.8475 19.6305 88.9092C20.1368 89.2905 20.6047 89.6136 21.0412 89.9767C21.6439 90.4797 22.1169 91.0843 22.3001 91.8687C22.3485 92.0718 22.3652 92.2901 22.3552 92.4982C22.3319 93.0546 21.9504 93.3975 21.4159 93.2494C21.0261 93.1411 20.6066 92.943 20.33 92.6581C19.7553 92.0669 19.2657 91.3908 18.7278 90.7328C18.7278 91.1543 18.7878 91.6073 18.7145 92.0352C18.5979 92.7114 18.4796 93.4126 18.1998 94.0288C17.8353 94.8298 17.0424 94.8132 16.5827 94.0504C16.1713 93.366 16.1963 92.6014 16.2947 91.8438C16.3429 91.474 16.4495 91.111 16.5427 90.6813C16.1513 90.9178 15.8182 91.1409 15.4651 91.3259C14.9008 91.6188 14.311 91.7672 13.6715 91.5673C12.9136 91.3308 12.6689 90.6762 13.1519 90.05C13.8281 89.1706 14.7756 88.7744 15.8533 88.6543C15.9832 88.6394 16.1113 88.6294 16.3744 88.6061C16.0649 88.4312 15.8632 88.3197 15.6616 88.2031C14.8857 87.7534 14.321 87.1274 14.0628 86.2545C13.9396 85.8333 13.8481 85.3219 14.2627 85.0969C14.5859 84.9221 15.0887 84.9237 15.4569 85.0323C15.8049 85.1336 16.0946 85.4633 16.3895 85.7165C16.5427 85.8481 16.6493 86.0313 16.8108 86.2312L16.8194 86.2294ZM18.0832 89.6536L17.8402 89.5903C17.6702 89.8435 17.4405 90.0766 17.3422 90.3549C17.1372 90.9344 16.9258 91.5307 16.866 92.1353C16.8159 92.6251 16.9624 93.1413 17.0659 93.6376C17.0939 93.769 17.2755 93.9471 17.399 93.9589C17.502 93.9673 17.6735 93.7806 17.7252 93.6473C17.8702 93.2711 18.0466 92.8797 18.0665 92.4882C18.1149 91.5473 18.0832 90.5996 18.0832 89.6554V89.6536ZM21.6339 92.7547C22.1238 91.4774 20.1068 89.7087 18.7063 89.2572C19.2208 90.4148 19.897 91.4441 20.8081 92.3017C21.0212 92.5015 21.3343 92.5965 21.6341 92.7564L21.6339 92.7547ZM17.2456 89.2157L17.1623 89.0726C16.5112 89.1726 15.8384 89.199 15.217 89.3956C14.7194 89.5539 14.2662 89.8903 13.8314 90.2016C13.6815 90.31 13.6482 90.578 13.5616 90.7746C13.7614 90.8578 13.9662 91.0195 14.1594 91.0061C14.5091 90.9826 14.8906 90.9211 15.1904 90.7563C15.7815 90.4299 16.3329 90.0318 16.8858 89.642C17.0324 89.5388 17.1274 89.3607 17.2456 89.2174V89.2157ZM18.498 88.2579C19.8785 88.4696 21.0994 88.1247 22.142 87.2171C22.2819 87.0957 22.3219 86.8607 22.4085 86.6775C22.227 86.6376 22.0405 86.5492 21.8622 86.5643C20.52 86.6742 19.4939 87.4303 18.498 88.2579ZM16.9907 88.2579L17.1039 88.1247C16.8576 87.242 16.3447 86.5161 15.7186 85.8581C15.62 85.7432 15.494 85.655 15.3522 85.6017C15.1438 85.5435 14.9173 85.545 14.699 85.5201C14.6941 85.7349 14.6193 85.9814 14.699 86.1579C14.8573 86.5092 15.0356 86.8974 15.3203 87.1339C15.8333 87.5602 16.4295 87.8882 16.9924 88.2566L16.9907 88.2579ZM18.0266 84.2276C17.3506 84.8271 17.2207 87.0839 17.8169 87.8467C18.543 87.3372 18.6845 84.8887 18.0266 84.2276ZM89.9724 89.0141C89.2197 88.691 88.4304 88.3796 87.6692 88.0066C87.3821 87.8699 87.1433 87.6492 86.9846 87.3737C86.8365 87.0772 86.7166 86.6358 86.8365 86.376C86.9431 86.1448 87.4194 85.923 87.6941 85.963C88.4151 86.0648 89.1283 86.2794 89.8225 86.511C90.1723 86.6276 90.477 86.8756 90.8234 87.0772C90.7952 86.5376 90.7254 86.0196 90.7552 85.5066C90.7818 85.047 90.8418 84.5607 91.0183 84.1429C91.3132 83.4399 92.0476 83.3966 92.4075 84.0661C92.6438 84.504 92.7304 85.0254 92.8537 85.5184C92.9069 85.7282 92.8854 85.9581 92.9003 86.2296C93.1903 85.9114 93.4166 85.6332 93.6731 85.3867C93.8405 85.2215 94.0411 85.0937 94.2616 85.0116C94.482 84.9296 94.7174 84.8951 94.9521 84.9106C95.4935 84.937 95.7933 85.2153 95.7566 85.7749C95.6982 86.6991 95.2002 87.3903 94.4858 87.9333C94.1778 88.168 93.8247 88.3463 93.4299 88.5897C93.773 88.6428 94.0594 88.6861 94.3443 88.7327C95.1138 88.8608 95.7766 89.2123 96.3331 89.7502C96.6775 90.0833 96.9773 90.4663 96.7661 90.9911C96.5527 91.5222 96.068 91.6321 95.5734 91.6572C94.9272 91.6905 94.3659 91.4174 93.8363 91.0826C93.6464 90.9626 93.4616 90.8312 93.2651 90.6995C93.3451 91.3741 93.4832 92.0221 93.4748 92.6698C93.4699 93.1361 93.3584 93.6458 93.1417 94.0537C92.7255 94.8349 91.9044 94.8283 91.538 94.0255C91.2633 93.4226 91.1416 92.7382 91.0285 92.0752C90.9535 91.6388 91.015 91.1809 91.015 90.6813C90.5986 91.2324 90.2522 91.7787 89.8159 92.2417C89.4628 92.6165 89.0449 92.9945 88.5801 93.1877C87.8191 93.5025 87.3379 93.0878 87.3861 92.2668C87.4409 91.3408 87.9523 90.6495 88.6068 90.0633C89.0549 89.6636 89.561 89.3272 89.9709 89.0158L89.9724 89.0141ZM92.3325 93.9971C93.3333 93.2843 92.9555 90.2882 91.8028 89.652C91.4214 91.7987 91.6012 93.3493 92.3325 93.9971ZM87.9272 92.6381C88.9316 92.6365 90.7001 90.5631 91.0066 89.1724C89.9207 89.7968 88.8615 90.3848 88.2537 91.4889C88.0754 91.8105 88.044 92.2135 87.9272 92.6365V92.6381ZM92.4788 89.1158C92.5938 89.3058 92.6387 89.4724 92.7473 89.5437C93.475 90.02 94.1993 90.5063 94.9621 90.9227C95.1986 91.0526 95.5533 91.0226 95.8415 90.9826C96.233 90.9293 96.3097 90.6928 96.083 90.3748C95.9925 90.2547 95.8886 90.1452 95.7735 90.0484C94.8489 89.2274 93.7081 89.1839 92.4788 89.1158ZM91.2368 88.3112L91.2899 88.1831C90.8052 87.8618 90.3488 87.4769 89.8259 87.2354C89.193 86.944 88.5086 86.7608 87.8358 86.5658C87.6927 86.5243 87.506 86.6376 87.3394 86.6791C87.4061 86.839 87.4676 87.0024 87.5426 87.1605C87.5675 87.2121 87.6226 87.2506 87.6692 87.2871C88.72 88.1247 89.9043 88.4796 91.2348 88.3112H91.2368ZM92.6358 88.1165L92.7455 88.2282C93.2236 87.9482 93.7263 87.7017 94.1744 87.3786C94.4304 87.2033 94.6476 86.9773 94.8126 86.7146C94.9777 86.4519 95.0869 86.1581 95.1337 85.8515C95.1753 85.5799 95.0654 85.442 94.784 85.4917C94.6374 85.5184 94.4744 85.5433 94.3592 85.625C93.475 86.248 93.0036 87.1488 92.6372 88.1165H92.6358ZM91.9627 87.8449C92.5388 86.9407 92.3773 84.719 91.6978 84.2309C91.0532 85.0021 91.2335 87.4385 91.9627 87.8449Z" fill="#5C3718"/>
<path d="M41.2621 48.3196C40.4614 48.3196 39.7273 48.1289 39.0598 47.7474C38.3923 47.366 37.8561 46.8226 37.4512 46.1173C37.0462 45.4106 36.8438 44.5661 36.8438 43.5838C36.8438 42.612 37.0345 41.761 37.4159 41.0308C37.7973 40.3019 38.3381 39.735 39.0382 39.3301C39.7397 38.9238 40.5672 38.7207 41.5207 38.7207C41.863 38.7207 42.2183 38.7547 42.5866 38.8226C42.9537 38.8892 43.2939 39.0009 43.6074 39.1576C43.9222 39.3157 44.1776 39.5234 44.3735 39.7807C44.5695 40.038 44.6674 40.3574 44.6674 40.7388C44.6766 41.149 44.5525 41.5089 44.2952 41.8184C44.0378 42.128 43.6754 42.2828 43.2077 42.2828C42.9217 42.2828 42.7192 42.2136 42.6003 42.0751C42.4815 41.9367 42.4266 41.8341 42.4357 41.7675C42.4357 41.7388 42.4952 41.6891 42.614 41.6186C42.7329 41.5467 42.8524 41.437 42.9726 41.2894C43.0915 41.1418 43.1509 40.9439 43.1509 40.6957C43.1509 40.266 43.0079 39.925 42.7218 39.6729C42.4357 39.4195 42.0302 39.2928 41.505 39.2928C40.9329 39.2928 40.4209 39.4555 39.9689 39.7807C39.5157 40.1047 39.1604 40.5788 38.903 41.2032C38.6457 41.8276 38.517 42.593 38.517 43.4996C38.517 44.2624 38.6529 44.956 38.9246 45.5804C39.1963 46.2048 39.5777 46.7005 40.0688 47.0675C40.56 47.4346 41.1295 47.6181 41.7774 47.6181C42.2921 47.6181 42.7329 47.511 43.1 47.2968C43.467 47.0826 43.7988 46.7371 44.0953 46.2603C44.1802 46.097 44.3324 46.0826 44.5518 46.2172C44.6381 46.2733 44.7047 46.3419 44.7517 46.4229C44.8 46.5052 44.7909 46.5888 44.7243 46.6737C44.3611 47.1322 44.0176 47.4777 43.6937 47.7102C43.3697 47.944 43.017 48.104 42.6356 48.1902C42.2542 48.2765 41.7963 48.3196 41.2621 48.3196ZM46.1546 48.0766C46.0592 48.0766 45.9926 48.0433 45.9547 47.9767C45.9156 47.9088 45.896 47.8369 45.896 47.7611C45.9064 47.5992 45.9449 47.5084 46.0116 47.4888C46.0782 47.4705 46.1592 47.4614 46.2545 47.4614C46.5602 47.4614 46.7744 47.4065 46.8972 47.2968C47.0213 47.1871 47.1003 47.0486 47.1343 46.8814C47.1669 46.7142 47.1833 46.5405 47.1833 46.3602V40.6957C47.1833 40.5142 47.1669 40.3378 47.1343 40.1667C47.1003 39.9943 47.0213 39.8532 46.8972 39.7435C46.7744 39.6338 46.5602 39.5789 46.2545 39.5789C46.1592 39.5789 46.0782 39.5698 46.0116 39.5515C45.9449 39.5319 45.9064 39.4411 45.896 39.2791C45.896 39.2034 45.9156 39.1322 45.9547 39.0655C45.9926 38.9989 46.0592 38.9656 46.1546 38.9656C46.459 38.9748 46.7476 38.9839 47.0206 38.993C47.2923 39.0022 47.5712 39.0068 47.8573 39.0068H50.3163C51.0882 39.0172 51.7152 39.1367 52.1972 39.3653C52.6792 39.5939 53.03 39.8846 53.2494 40.2372C53.4689 40.5899 53.5786 40.957 53.5786 41.3384C53.5786 41.8439 53.3755 42.3207 52.9692 42.7687C52.5643 43.2168 51.9948 43.5361 51.2607 43.7268C51.6225 44.299 51.9895 44.8737 52.3618 45.4511C52.7341 46.0284 53.1632 46.5699 53.6491 47.0754C53.7824 47.1799 53.9136 47.2654 54.043 47.332C54.171 47.3987 54.3257 47.4418 54.5073 47.4614C54.5831 47.4705 54.6595 47.4823 54.7366 47.4966C54.8123 47.511 54.8554 47.5992 54.8659 47.7611C54.8659 47.8369 54.8463 47.9088 54.8071 47.9767C54.7692 48.0433 54.7026 48.0766 54.6072 48.0766C54.4074 48.0662 54.248 48.059 54.1292 48.0551C54.009 48.0498 53.8921 48.0446 53.7784 48.0394C53.6635 48.0355 53.5107 48.0335 53.32 48.0335C52.9294 47.9564 52.5983 47.818 52.3266 47.6181C52.0549 47.4183 51.7904 47.142 51.533 46.7893C51.2652 46.4262 51.0171 46.0591 50.7885 45.6882C50.5599 45.3159 50.3359 44.9534 50.1164 44.6007C49.9923 44.3996 49.8663 44.2539 49.7382 44.1638C49.6089 44.0736 49.3679 44.0286 49.0152 44.0286H48.5999V46.3602C48.609 46.5405 48.6279 46.7142 48.6567 46.8814C48.6854 47.0486 48.7645 47.1871 48.8938 47.2968C49.0218 47.4065 49.234 47.4614 49.5306 47.4614C49.6259 47.4614 49.7069 47.4705 49.7735 47.4888C49.8401 47.5084 49.878 47.5992 49.8872 47.7611C49.8872 47.8369 49.8682 47.9088 49.8303 47.9767C49.7925 48.0433 49.7258 48.0766 49.6305 48.0766C49.0205 48.0479 48.4242 48.0335 47.8416 48.0335C47.5555 48.0335 47.2793 48.0355 47.0128 48.0394C46.745 48.0446 46.459 48.057 46.1546 48.0766ZM48.5999 40.7232V43.4702H49.8597C50.3456 43.4702 50.729 43.4036 51.0099 43.2703C51.292 43.1371 51.5043 42.9653 51.6467 42.755C51.7903 42.5447 51.8831 42.3253 51.9249 42.0967C51.968 41.8681 51.9895 41.6584 51.9895 41.4677C51.9895 41.1529 51.9203 40.8479 51.7819 40.5527C51.6447 40.2575 51.4017 40.0145 51.053 39.8238C50.7055 39.6331 50.2216 39.5377 49.6011 39.5377C49.1909 39.5377 48.9219 39.6161 48.7938 39.7729C48.6645 39.9296 48.5999 40.2464 48.5999 40.7232ZM60.1169 48.3196C59.4207 48.3196 58.7911 48.1909 58.2281 47.9336C57.6651 47.6762 57.1838 47.3281 56.7841 46.8892C56.3831 46.4504 56.0781 45.952 55.8691 45.3943C55.6588 44.8365 55.5536 44.2526 55.5536 43.6426C55.5536 42.851 55.6895 42.1502 55.9612 41.5402C56.2329 40.9289 56.5927 40.4136 57.0408 39.9943C57.4888 39.575 57.9825 39.2582 58.522 39.044C59.0602 38.8285 59.5918 38.7207 60.1169 38.7207C60.8314 38.7207 61.4728 38.85 62.041 39.1087C62.6079 39.366 63.0912 39.7134 63.491 40.151C63.892 40.5899 64.1976 41.0883 64.4079 41.646C64.6169 42.2038 64.7214 42.7831 64.7214 43.384C64.7214 44.1755 64.5836 44.8763 64.308 45.4863C64.0311 46.0977 63.6634 46.613 63.2049 47.0323C62.7477 47.4516 62.25 47.771 61.7119 47.9904C61.1724 48.2098 60.6407 48.3196 60.1169 48.3196ZM60.1013 47.6906C60.7792 47.6906 61.3324 47.4901 61.7608 47.0891C62.1906 46.6881 62.508 46.161 62.7131 45.5079C62.9182 44.8548 63.0207 44.1468 63.0207 43.384C63.0207 42.6695 62.9129 42.0046 62.6974 41.3893C62.4832 40.7741 62.1618 40.2784 61.7334 39.9022C61.3036 39.5247 60.7596 39.3359 60.1013 39.3359C59.4338 39.3359 58.8884 39.5338 58.4652 39.9296C58.0407 40.3254 57.7278 40.8453 57.5267 41.4893C57.3268 42.1332 57.2269 42.8366 57.2269 43.5995C57.2269 44.314 57.3294 44.9834 57.5345 45.6078C57.7396 46.2335 58.0564 46.7371 58.4848 47.1185C58.9146 47.4999 59.4534 47.6906 60.1013 47.6906ZM66.2517 48.0766C66.1668 48.0766 66.1028 48.0433 66.0597 47.9767C66.0166 47.9088 65.995 47.8369 65.995 47.7611C66.0041 47.5992 66.0446 47.5084 66.1165 47.4888C66.1883 47.4705 66.2719 47.4614 66.3673 47.4614C66.6716 47.4614 66.8859 47.4065 67.0099 47.2968C67.134 47.1871 67.2131 47.0486 67.247 46.8814C67.2797 46.7142 67.296 46.5405 67.296 46.3602V40.682C67.296 40.5004 67.2797 40.3261 67.247 40.1589C67.2131 39.9917 67.134 39.8532 67.0099 39.7435C66.8859 39.6338 66.6716 39.5789 66.3673 39.5789C66.2719 39.5789 66.1883 39.5698 66.1165 39.5515C66.0446 39.5319 66.0041 39.4411 65.995 39.2791C65.995 39.2034 66.0166 39.1322 66.0597 39.0655C66.1028 38.9989 66.1668 38.9656 66.2517 38.9656C66.5573 38.9748 66.8486 38.9839 67.1255 38.993C67.4012 39.0022 67.682 39.0068 67.9681 39.0068H70.1136C70.2951 39.0068 70.5316 39.0211 70.8228 39.0499C71.1128 39.0786 71.4224 39.1361 71.7516 39.2223C72.0807 39.3085 72.3929 39.447 72.6881 39.6377C72.9847 39.8284 73.2257 40.0811 73.4112 40.3959C73.5966 40.7094 73.6894 41.1046 73.6894 41.5814C73.6894 42.0307 73.5868 42.4363 73.3818 42.7981C73.1767 43.1599 72.905 43.4695 72.5667 43.7268C72.2284 43.9855 71.8469 44.1834 71.4224 44.3205C70.9979 44.459 70.5668 44.5282 70.1292 44.5282C69.9189 44.5282 69.6897 44.5139 69.4415 44.4851C69.1933 44.4564 68.9458 44.3943 68.6989 44.299V46.3602C68.7081 46.5405 68.727 46.7142 68.7557 46.8814C68.7845 47.0486 68.8628 47.1871 68.9908 47.2968C69.1202 47.4065 69.3324 47.4614 69.6276 47.4614C69.7321 47.4614 69.8183 47.4705 69.8863 47.4888C69.9529 47.5084 69.9908 47.5992 69.9999 47.7611C69.9999 47.8369 69.9784 47.9088 69.9352 47.9767C69.8921 48.0433 69.8281 48.0766 69.7432 48.0766C69.1319 48.0479 68.5356 48.0335 67.9543 48.0335C67.6683 48.0335 67.3894 48.0355 67.1177 48.0394C66.846 48.0446 66.5573 48.057 66.2517 48.0766ZM69.7138 43.8856C69.9333 43.8856 70.1789 43.8496 70.4506 43.7778C70.7223 43.7059 70.9842 43.5864 71.2363 43.4192C71.4897 43.2533 71.6974 43.0247 71.8593 42.7335C72.0213 42.4422 72.1023 42.0725 72.1023 41.6245C72.1023 41.1385 72.007 40.7552 71.8162 40.4743C71.6255 40.1922 71.3898 39.9845 71.1089 39.8512C70.8268 39.718 70.5479 39.6324 70.2723 39.5946C69.9954 39.5567 69.7713 39.5377 69.6002 39.5377C69.3703 39.5377 69.1887 39.5613 69.0555 39.6083C68.9223 39.6566 68.8295 39.7592 68.7773 39.9159C68.725 40.0727 68.6989 40.3137 68.6989 40.6389V43.7268C68.7943 43.766 68.9321 43.802 69.1123 43.8346C69.2939 43.8686 69.4944 43.8856 69.7138 43.8856ZM41.9773 62.2192C41.1765 62.2192 40.4424 62.0285 39.7749 61.6471C39.1075 61.2657 38.5712 60.7223 38.1663 60.0169C37.7614 59.3102 37.5589 58.4664 37.5589 57.4854C37.5589 56.5123 37.7496 55.6613 38.131 54.9324C38.5125 54.2022 39.0533 53.6346 39.7534 53.2297C40.4548 52.8248 41.2823 52.6223 42.2359 52.6223C42.5781 52.6223 42.9334 52.6556 43.3018 52.7222C43.6688 52.7888 44.0091 52.9005 44.3226 53.0573C44.6374 53.2153 44.8928 53.423 45.0887 53.6804C45.2846 53.9377 45.3826 54.2571 45.3826 54.6385C45.3918 55.0486 45.2677 55.4085 45.0103 55.7181C44.753 56.0277 44.3905 56.1825 43.9229 56.1825C43.6368 56.1825 43.4344 56.1132 43.3155 55.9748C43.1966 55.8376 43.1418 55.7351 43.1509 55.6671C43.1509 55.6397 43.2103 55.5901 43.3292 55.5182C43.4481 55.4464 43.5676 55.3367 43.6878 55.1891C43.8066 55.0415 43.8661 54.8436 43.8661 54.5954C43.8661 54.1656 43.723 53.8247 43.437 53.5726C43.1509 53.3205 42.7453 53.1944 42.2202 53.1944C41.6481 53.1944 41.136 53.3564 40.6841 53.6804C40.2308 54.0043 39.8755 54.4785 39.6182 55.1028C39.3609 55.7272 39.2322 56.4927 39.2322 57.3992C39.2322 58.162 39.3681 58.8557 39.6398 59.48C39.9114 60.1044 40.2929 60.6001 40.784 60.9672C41.2751 61.3342 41.8447 61.5178 42.4926 61.5178C43.0072 61.5178 43.4481 61.4107 43.8151 61.1964C44.1822 60.9822 44.514 60.6367 44.8105 60.1599C44.8954 59.998 45.0476 59.9836 45.267 60.1168C45.3532 60.1743 45.4198 60.2435 45.4669 60.3245C45.5152 60.4055 45.506 60.4885 45.4394 60.5734C45.0763 61.0318 44.7328 61.378 44.4088 61.6118C44.0849 61.8443 43.7322 62.0037 43.3508 62.0899C42.9693 62.1761 42.5115 62.2192 41.9773 62.2192ZM46.0821 61.9763C45.9867 61.9763 45.9201 61.943 45.8822 61.8763C45.8444 61.8097 45.8254 61.7379 45.8254 61.6608C45.8346 61.4988 45.8724 61.4081 45.9391 61.3885C46.0057 61.3702 46.0867 61.361 46.182 61.361C46.4407 61.361 46.6366 61.3088 46.7698 61.2043C46.9031 61.0985 47.0102 60.96 47.0912 60.7889C47.1721 60.6165 47.2505 60.4401 47.3263 60.2599L49.8303 54.3387C49.9257 54.1088 49.9446 53.9344 49.8872 53.8156C49.8297 53.6967 49.7343 53.6111 49.6011 53.5589C49.4679 53.5066 49.3203 53.4661 49.1583 53.4374C49.0146 53.4087 48.9192 53.3825 48.8722 53.359C48.8239 53.3342 48.7997 53.2506 48.7997 53.1082C48.7997 52.9463 48.8572 52.8581 48.9721 52.8437C49.0871 52.8293 49.2203 52.8222 49.3719 52.8222C49.7637 52.8222 50.0975 52.86 50.3731 52.9358C50.65 53.0129 50.8884 53.1585 51.0882 53.3727C51.2894 53.587 51.4755 53.9089 51.6467 54.3387L54.0488 60.2599C54.1167 60.4218 54.1886 60.5884 54.2644 60.7595C54.3401 60.9319 54.4427 61.073 54.572 61.1827C54.7 61.2924 54.8646 61.3519 55.0657 61.361C55.1702 61.361 55.2538 61.3702 55.3165 61.3885C55.3779 61.4081 55.4132 61.4988 55.4223 61.6608C55.4223 61.7379 55.4008 61.8097 55.3577 61.8763C55.3159 61.943 55.2519 61.9763 55.1656 61.9763C54.86 61.9567 54.5929 61.9449 54.3643 61.941C54.1357 61.9358 53.8784 61.9332 53.5923 61.9332C53.0293 61.9332 52.4382 61.9475 51.8191 61.9763C51.7237 61.9763 51.6565 61.943 51.6173 61.8763C51.5794 61.8097 51.5604 61.7379 51.5604 61.6608C51.5709 61.4988 51.6094 61.4081 51.6761 61.3885C51.7427 61.3702 51.8237 61.361 51.919 61.361C52.3853 61.361 52.6401 61.2748 52.6832 61.1024C52.7263 60.9313 52.6812 60.6504 52.548 60.2599L52.062 59.0725H48.5293C48.3856 59.4343 48.2831 59.6962 48.2217 59.8582C48.159 60.0202 48.1205 60.1253 48.1061 60.1737C48.0917 60.2207 48.08 60.2494 48.0708 60.2599C47.9663 60.5838 47.9115 60.8242 47.9063 60.9809C47.901 61.139 47.9774 61.2415 48.1355 61.2885C48.2922 61.3369 48.5568 61.361 48.929 61.361C49.0335 61.361 49.1171 61.3702 49.1798 61.3885C49.2412 61.4081 49.2772 61.4988 49.2876 61.6608C49.2876 61.7379 49.266 61.8097 49.2229 61.8763C49.1798 61.943 49.1152 61.9763 49.029 61.9763C48.7246 61.9567 48.4601 61.9449 48.2354 61.941C48.0108 61.9358 47.7554 61.9332 47.4693 61.9332C47.2786 61.9332 47.1192 61.9358 46.9912 61.941C46.8619 61.9449 46.7306 61.9495 46.5974 61.9547C46.4642 61.9586 46.2924 61.9658 46.0821 61.9763ZM50.3163 54.7815L48.7997 58.4573H51.8034L50.3594 54.7815H50.3163ZM56.212 61.9763C56.1166 61.9763 56.05 61.943 56.0121 61.8763C55.9729 61.8097 55.9533 61.7379 55.9533 61.6608C55.9638 61.4988 56.0023 61.4081 56.0689 61.3885C56.1355 61.3702 56.2165 61.361 56.3119 61.361C56.6162 61.361 56.8304 61.3062 56.9545 61.1964C57.0786 61.0867 57.1577 60.9482 57.1916 60.7811C57.2243 60.6139 57.2406 60.4401 57.2406 60.2599V54.5954C57.2406 54.4138 57.2243 54.2375 57.1916 54.0664C57.1577 53.8939 57.0786 53.7535 56.9545 53.6451C56.8304 53.5354 56.6162 53.4805 56.3119 53.4805C56.2165 53.4805 56.1355 53.4707 56.0689 53.4511C56.0023 53.4315 55.9638 53.3407 55.9533 53.1788C55.9533 53.103 55.9729 53.0318 56.0121 52.9652C56.05 52.8986 56.1166 52.8653 56.212 52.8653C56.5163 52.8744 56.8043 52.8836 57.076 52.8927C57.3477 52.9031 57.6266 52.9084 57.9127 52.9084H60.3736C61.1456 52.9175 61.7726 53.0364 62.2546 53.265C62.7366 53.4936 63.0873 53.7842 63.3068 54.1369C63.5249 54.4896 63.634 54.8566 63.634 55.238C63.634 55.7436 63.4315 56.2203 63.0266 56.6684C62.6217 57.1177 62.0521 57.4377 61.318 57.6285C61.6798 58.2006 62.0469 58.7747 62.4192 59.3507C62.7915 59.9281 63.2206 60.4695 63.7065 60.975C63.8397 61.0795 63.971 61.1651 64.1003 61.2317C64.2283 61.2983 64.3831 61.3414 64.5647 61.361C64.6404 61.3702 64.7168 61.3819 64.7939 61.3963C64.8697 61.4107 64.9121 61.4988 64.9213 61.6608C64.9213 61.7379 64.9023 61.8097 64.8644 61.8763C64.8266 61.943 64.76 61.9763 64.6646 61.9763C64.4648 61.9658 64.3054 61.9586 64.1865 61.9547C64.0663 61.9495 63.9494 61.9449 63.8358 61.941C63.7208 61.9358 63.568 61.9332 63.3773 61.9332C62.9867 61.8561 62.6556 61.7176 62.3839 61.5178C62.1122 61.3179 61.8477 61.0417 61.5904 60.689C61.3226 60.3258 61.0744 59.9588 60.8458 59.5878C60.6172 59.2155 60.3932 58.853 60.1738 58.5004C60.0497 58.3005 59.923 58.1549 59.7937 58.0634C59.6656 57.9733 59.4253 57.9282 59.0726 57.9282H58.6572V60.2599C58.6664 60.4401 58.6853 60.6139 58.7141 60.7811C58.7428 60.9482 58.8218 61.0867 58.9511 61.1964C59.0791 61.3062 59.2914 61.361 59.5879 61.361C59.6833 61.361 59.7643 61.3702 59.8309 61.3885C59.8975 61.4081 59.9354 61.4988 59.9445 61.6608C59.9445 61.7379 59.9256 61.8097 59.8877 61.8763C59.8498 61.943 59.7832 61.9763 59.6878 61.9763C59.0765 61.9475 58.4802 61.9332 57.899 61.9332C57.6129 61.9332 57.3366 61.9358 57.0702 61.941C56.8024 61.9449 56.5163 61.9567 56.212 61.9763ZM58.6572 54.6248V57.3698H59.9151C60.4024 57.3698 60.7864 57.3032 61.0672 57.17C61.3481 57.0367 61.5603 56.865 61.704 56.6547C61.8464 56.4457 61.9391 56.2262 61.9822 55.9963C62.0253 55.7677 62.0469 55.5581 62.0469 55.3674C62.0469 55.0526 61.9777 54.7476 61.8392 54.4523C61.7008 54.1571 61.4578 53.9142 61.1103 53.7235C60.7629 53.5328 60.2789 53.4374 59.6585 53.4374C59.2483 53.4374 58.9792 53.5158 58.8512 53.6725C58.7219 53.8306 58.6572 54.148 58.6572 54.6248ZM65.7932 61.9763C65.707 61.9763 65.6449 61.943 65.607 61.8763C65.5692 61.8097 65.5502 61.7379 65.5502 61.6608C65.5594 61.4988 65.5973 61.4081 65.6639 61.3885C65.7305 61.3702 65.8115 61.361 65.9068 61.361C66.2125 61.361 66.4274 61.3062 66.5515 61.1964C66.6756 61.0867 66.7539 60.9482 66.7866 60.7811C66.8205 60.6139 66.8375 60.4401 66.8375 60.2599V54.5817C66.8375 54.4001 66.8205 54.2257 66.7866 54.0585C66.7539 53.8913 66.6756 53.7535 66.5515 53.6451C66.4274 53.5354 66.2125 53.4805 65.9068 53.4805C65.8115 53.4805 65.7305 53.4707 65.6639 53.4511C65.5973 53.4315 65.5594 53.3407 65.5502 53.1788C65.5502 53.103 65.5692 53.0318 65.607 52.9652C65.6449 52.8986 65.707 52.8653 65.7932 52.8653C66.108 52.8744 66.3986 52.8836 66.6651 52.8927C66.9316 52.9031 67.2078 52.9084 67.4939 52.9084H71.9867C72.0912 52.9084 72.1794 52.9319 72.2512 52.9789C72.3218 53.0272 72.357 53.118 72.357 53.2513L72.4001 55.2537C72.4001 55.3491 72.3551 55.4203 72.2649 55.4673C72.1748 55.5156 72.0912 55.5398 72.0141 55.5398C71.9096 55.5398 71.8143 55.5182 71.7281 55.4751C71.6432 55.432 71.5909 55.3674 71.5713 55.2811C71.5047 54.8527 71.4263 54.5072 71.3362 54.2447C71.2448 53.9821 71.1109 53.7914 70.9345 53.6725C70.7582 53.5537 70.5035 53.4896 70.1704 53.4805H68.2522V57.1131H70.8424C70.9182 57.1223 70.9731 57.1602 71.007 57.2268C71.0397 57.2934 71.056 57.3652 71.056 57.4423C71.056 57.5089 71.0397 57.5729 71.007 57.6343C70.9731 57.697 70.9182 57.7284 70.8424 57.7284H68.2522V60.4303C68.2626 60.5544 68.2822 60.6903 68.311 60.8379C68.3384 60.9868 68.4213 61.1135 68.5598 61.218C68.6983 61.3225 68.9295 61.3702 69.2534 61.361H70.5701C70.9032 61.3519 71.1585 61.297 71.3362 61.1964C71.5125 61.0959 71.653 60.9267 71.7575 60.689C71.862 60.4499 71.9762 60.1207 72.1003 59.7014C72.1382 59.6061 72.2029 59.5441 72.2943 59.5153C72.3844 59.4866 72.4818 59.482 72.5863 59.5016C72.6633 59.5107 72.7424 59.5441 72.8234 59.6015C72.9043 59.659 72.9396 59.7354 72.9291 59.8308L72.6431 61.6334C72.6157 61.7666 72.5706 61.8496 72.5079 61.8822C72.4465 61.9162 72.3538 61.9332 72.2297 61.9332H67.5096C67.2235 61.9332 66.9446 61.9358 66.6729 61.941C66.4012 61.9449 66.108 61.9567 65.7932 61.9763Z" fill="#5C3718"/>
</svg>
